<?xml version="1.0" standalone="no"?>
<!DOCTYPE svg PUBLIC "-//W3C//DTD SVG 1.1//EN" "http://www.w3.org/Graphics/SVG/1.1/DTD/svg11.dtd" >
<svg xmlns="http://www.w3.org/2000/svg" version="1.1">
<metadata>
Created by FontForge 20170731 at Thu May  4 19:38:24 2017
 By Aleksey,,,
Copyright (c) 2011, TypeTogether (www.type-together.com), with Reserved Font Names "Bree" and "Bree Serif"
</metadata>
<defs>
<font id="BreeSerif-Regular" horiz-adv-x="500" >
  <font-face 
    font-family="Bree Serif"
    font-weight="400"
    font-stretch="normal"
    units-per-em="1000"
    panose-1="2 0 5 3 4 0 0 2 0 4"
    ascent="800"
    descent="-200"
    x-height="503"
    cap-height="665"
    bbox="-115 -281 1000 1077"
    underline-thickness="50"
    underline-position="-150"
    unicode-range="U+000D-FB04"
  />
<missing-glyph 
 />
    <glyph glyph-name=".notdef" 
 />
    <glyph glyph-name=".null" horiz-adv-x="0" 
 />
    <glyph glyph-name=".null" horiz-adv-x="0" 
 />
    <glyph glyph-name="nonmarkingreturn" horiz-adv-x="333" 
 />
    <glyph glyph-name="CR" unicode="&#xd;" horiz-adv-x="220" 
 />
    <glyph glyph-name="space" unicode=" " horiz-adv-x="200" 
 />
    <glyph glyph-name="exclam" unicode="!" horiz-adv-x="277" 
d="M84 529v119q0 47 56 47t56 -49v-117l-20 -349h-71zM88.5 2q-18.5 19 -18.5 47t19 47.5t49.5 19.5t49.5 -18.5t19 -46.5t-18.5 -48t-50 -20t-50 19z" />
    <glyph glyph-name="quotedbl" unicode="&#x22;" horiz-adv-x="349" 
d="M56 665h93l-10 -230h-73zM199 665h93l-9 -230h-74z" />
    <glyph glyph-name="numbersign" unicode="#" horiz-adv-x="534" 
d="M289 0l13 157h-110l-13 -157h-73l13 157h-101v66h107l14 156h-102v66h107l15 160h73l-15 -160h110l15 160h73l-15 -160h101v-66h-106l-14 -156h101v-66h-107l-13 -157h-73zM212 379l-14 -156h110l14 156h-110z" />
    <glyph glyph-name="dollar" unicode="$" horiz-adv-x="535" 
d="M230 -91v100q-96 3 -172 38v149l99 7v-58q0 -14 4 -20.5t21 -12.5t48 -6v187q-78 22 -113 49t-48.5 58t-13.5 73q0 74 47.5 122.5t127.5 59.5v92h75v-90q84 -5 155 -38v-141l-98 -6v54q0 14 -4 20.5t-20.5 11.5t-32.5 6v-176h1q76 -23 122 -58q58 -42 58 -125t-49.5 -132
t-131.5 -61v-103h-75zM362 196q0 50 -57 73v-156q57 18 57 83zM230 558q-52 -18 -52 -69t52 -75v144z" />
    <glyph glyph-name="percent" unicode="%" horiz-adv-x="801" 
d="M499 303.5q43 47.5 115.5 47.5t113.5 -45t41 -135t-41.5 -137.5t-117 -47.5t-115 46t-39.5 135t43 136.5zM611 55q70 0 70 113.5t-68 113.5q-70 0 -70 -113.5t68 -113.5zM77 609.5q43 47.5 115.5 47.5t113.5 -45t41 -135t-41.5 -137.5t-117 -47.5t-115 46t-39.5 135
t43 136.5zM189 361q70 0 70 113.5t-68 113.5q-70 0 -70 -113.5t68 -113.5zM293 -9l-79 36l292 626l81 -34z" />
    <glyph glyph-name="ampersand" unicode="&#x26;" horiz-adv-x="714" 
d="M475 220q19 48 19 92q0 14 -18 16l-32 2v78h211v-81l-55 -2q0 -96 -42 -176q45 -38 126 -96l-66 -87q-60 40 -126 94q-74 -74 -200 -74t-184 59t-58 144q0 132 122 208q-31 51 -31 110q0 76 51 123t143.5 47t180.5 -41v-151l-102 -7v61q0 28 -21 35q-27 8 -53 8
q-81 0 -81 -77q0 -102 216 -285zM408 130q-120 102 -181 184q-61 -43 -61 -117q0 -51 31.5 -82.5t100 -31.5t110.5 47z" />
    <glyph glyph-name="quotesingle" unicode="'" horiz-adv-x="205" 
d="M56 665h93l-10 -230h-73z" />
    <glyph glyph-name="parenleft" unicode="(" horiz-adv-x="331" 
d="M201 -176q-132 224 -132 449t132 456l95 -44q-109 -215 -109 -406t108 -410z" />
    <glyph glyph-name="parenright" unicode=")" horiz-adv-x="331" 
d="M130 731q132 -224 132 -449t-132 -456l-95 44q109 215 109 406t-108 410z" />
    <glyph glyph-name="asterisk" unicode="*" horiz-adv-x="452" 
d="M179 557l-134 22l7 44q5 32 28 40q7 2 14 2l32 -12l77 -54l-32 142l42 11q11 3 24 3t24.5 -12t11.5 -25.5t-2 -21.5l-18 -99l117 74l25 -36q11 -18 11 -30q0 -40 -44 -43l-93 -8l108 -80l-25 -36q-18 -24 -38 -24q-26 0 -42 30l-48 89l-68 -123l-40 19q-30 14 -30 39
t24 40z" />
    <glyph glyph-name="plus" unicode="+" horiz-adv-x="535" 
d="M216 364v161h102v-161h154v-98h-154v-160h-102v160h-154v98h154z" />
    <glyph glyph-name="comma" unicode="," horiz-adv-x="241" 
d="M202 79l-103 -234l-63 19l31 203q7 50 49 50q21 0 32.5 -6.5t19 -10.5t10.5 -6t12 -7.5t12 -7.5z" />
    <glyph glyph-name="hyphen" unicode="-" horiz-adv-x="322" 
d="M30 242v92h262v-92h-262z" />
    <glyph glyph-name="period" unicode="." horiz-adv-x="226" 
d="M59 4.5q-19 19.5 -19 51t19.5 52t53 20.5t53.5 -19.5t20 -51t-19 -52t-54 -20.5t-54 19.5z" />
    <glyph glyph-name="slash" unicode="/" horiz-adv-x="428" 
d="M110 -110l-102 38l306 827l104 -37z" />
    <glyph glyph-name="zero" unicode="0" horiz-adv-x="535" 
d="M272 657q227 0 227 -329q0 -175 -59 -256.5t-175 -81.5t-173 80.5t-57 250.5t63 253t174 83zM267 86q54 0 83.5 53t29.5 184.5t-28.5 183.5t-83.5 52t-83.5 -55.5t-28.5 -185t28.5 -181t82.5 -51.5z" />
    <glyph glyph-name="one" unicode="1" horiz-adv-x="454" 
d="M205 121v393l-117 -60l-44 77l182 113h98v-554l104 -5v-85h-348v82l96 6q15 1 22 8t7 25z" />
    <glyph glyph-name="two" unicode="2" horiz-adv-x="513" 
d="M59 0v77l199 251q31 40 41 53.5t19.5 38t9.5 59t-23.5 56.5t-60 22t-55 -6t-22 -13.5t-3.5 -23.5v-71l-102 7v160q94 47 193 47t149 -48.5t50 -132.5t-85 -187l-161 -190h250v-99h-399z" />
    <glyph glyph-name="three" unicode="3" horiz-adv-x="522" 
d="M167 373h103q60 38 60 107q0 77 -87 77q-32 0 -53.5 -7t-25 -14.5t-3.5 -23.5v-72l-102 7v160q100 50 198 50t146.5 -44.5t48.5 -115.5q0 -52 -25 -94.5t-66 -68.5q101 -32 101 -142q0 -92 -57 -148.5t-169 -56.5q-55 0 -109.5 15t-86.5 35l35 95q79 -44 157 -44
q109 0 109 97q0 50 -33 73.5t-112 23.5h-38z" />
    <glyph glyph-name="four" unicode="4" horiz-adv-x="536" 
d="M347 462h70v-187h89v-95h-90v-90l83 -5v-85h-294v82l62 5q29 2 29 28v66h-256v83l188 395l95 -47l-161 -337h143v54z" />
    <glyph glyph-name="five" unicode="5" horiz-adv-x="507" 
d="M442 549h-229l-20 -153q112 -8 182.5 -58.5t70.5 -149.5q0 -81 -54 -140t-168 -59q-56 0 -109.5 15t-85.5 35l40 92q78 -43 150 -43q102 0 102 98q0 122 -239 122l43 336h199q23 0 23 28v43l95 -7v-159z" />
    <glyph glyph-name="six" unicode="6" horiz-adv-x="534" 
d="M395 671l23 -90q-214 -27 -239 -212q63 41 140.5 41t123.5 -52t46 -147.5t-56.5 -158.5t-165 -63t-161 78t-52.5 209q0 357 341 395zM372 211q0 114 -89 114q-26 0 -59.5 -12t-51.5 -27v-20q0 -79 23 -132t80 -53q43 0 70 34.5t27 95.5z" />
    <glyph glyph-name="seven" unicode="7" horiz-adv-x="475" 
d="M23 644h432v-83l-229 -561h-125l235 545h-189q-22 0 -22 -31v-40l-102 7v163z" />
    <glyph glyph-name="eight" unicode="8" horiz-adv-x="535" 
d="M47 159q0 111 122 182q-101 62 -101 149q0 72 56 119.5t150 47.5t141.5 -43.5t47.5 -106.5q0 -80 -95 -160q122 -71 122 -174q0 -79 -57 -131.5t-170.5 -52.5t-164.5 50.5t-51 119.5zM335.5 104q26.5 24 26.5 65t-28 68.5t-83 55.5q-42 -28 -64.5 -56.5t-22.5 -67
t25.5 -64t72.5 -25.5t73.5 24zM328.5 553q-23.5 19 -60 19t-60.5 -21.5t-24 -53.5q0 -60 95 -108q30 20 51.5 50.5t21.5 62.5t-23.5 51z" />
    <glyph glyph-name="nine" unicode="9" horiz-adv-x="535" 
d="M139 -12l-24 93q115 13 175 61t71 132q-58 -38 -139 -38t-126.5 52t-45.5 147t57 158.5t166 63.5t160 -78t51 -209q0 -351 -345 -382zM194 530q-27 -34 -27 -91t23 -86.5t57.5 -29.5t68 11.5t51.5 25.5v18q0 186 -101 186q-45 0 -72 -34z" />
    <glyph glyph-name="colon" unicode=":" horiz-adv-x="226" 
d="M59 4.5q-19 19.5 -19 51t19.5 52t53 20.5t53.5 -19.5t20 -51t-19 -52t-54 -20.5t-54 19.5zM59 372.5q-19 19.5 -19 51t19.5 52t53 20.5t53.5 -19.5t20 -51t-19 -52t-54 -20.5t-54 19.5z" />
    <glyph glyph-name="semicolon" unicode=";" horiz-adv-x="241" 
d="M87 372.5q-19 19.5 -19 51t19.5 52t53 20.5t53.5 -19.5t20 -51t-19 -52t-54 -20.5t-54 19.5zM202 79l-103 -234l-63 19l31 203q7 50 49 50q21 0 32.5 -6.5t19 -10.5t10.5 -6t12 -7.5t12 -7.5z" />
    <glyph glyph-name="less" unicode="&#x3c;" horiz-adv-x="535" 
d="M434 537l40 -89l-273 -126l275 -132l-42 -90l-366 180v78z" />
    <glyph glyph-name="equal" unicode="=" horiz-adv-x="535" 
d="M470 450v-96h-405v96h405zM470 259v-97h-405v97h405z" />
    <glyph glyph-name="greater" unicode="&#x3e;" horiz-adv-x="535" 
d="M70 448l40 89l366 -179v-78l-366 -180l-42 90l275 132z" />
    <glyph glyph-name="question" unicode="?" horiz-adv-x="433" 
d="M281 538q0 63 -69 63q-23 0 -43 -5.5t-23.5 -13.5t-3.5 -24v-53l-102 7v137q96 46 183.5 46t130.5 -41t43 -106.5t-26.5 -103t-68.5 -68t-53 -44.5t-12 -42l-5 -110h-96l-5 105v15q0 44 16 73q18 32 79 76q33 24 38 32.5t10 16.5q7 15 7 40zM134.5 2q-18.5 19 -18.5 47
t19 47.5t49.5 19.5t49.5 -18.5t19 -46.5t-18.5 -48t-50 -20t-50 19z" />
    <glyph glyph-name="at" unicode="@" horiz-adv-x="953" 
d="M798 284q0 131 -75 208.5t-231 77.5t-244.5 -99t-88.5 -251.5t79.5 -244.5t222.5 -92q89 0 158 31l25 -73q-79 -34 -182.5 -34t-180.5 33.5t-123 91.5q-91 113 -91 280q0 206 123 321t316 115q171 0 275 -94.5t104 -266.5q0 -140 -68 -213t-181 -74h-57l-8 54l-3 1
q-39 -58 -118 -58q-163 0 -163 204q0 116 56.5 180t160.5 64q72 0 150 -29v-293l4 -53q140 9 140 214zM555 361q-24 11 -57 11q-113 -1 -113 -168q0 -133 88 -133q82 0 82 96v194z" />
    <glyph glyph-name="A" unicode="A" horiz-adv-x="662" 
d="M68 112l161 466l-63 6v81h229l204 -577h1l57 -3v-85h-258v81l38 3q17 2 23 8t1 22l-21 62h-234l-30 -88l60 -3v-85h-231v81l33 3q21 2 30 28zM323 553l-93 -285h186l-90 285h-3z" />
    <glyph glyph-name="B" unicode="B" horiz-adv-x="602" 
d="M39 665h282q216 0 216 -167q0 -92 -92 -140q59 -15 92.5 -55t33.5 -104q0 -97 -65.5 -148t-190.5 -51h-281v81l33 3q29 3 29 28v465l-57 3v85zM218 303v-209h94q130 0 130 106q0 50 -32.5 76.5t-92.5 26.5h-99zM218 573v-181h74q62 0 91.5 25.5t29.5 71.5t-29.5 65
t-84.5 19h-81z" />
    <glyph glyph-name="C" unicode="C" horiz-adv-x="602" 
d="M436 559q-11 19 -82 19q-93 0 -141 -63t-48 -182q0 -247 185 -247h26.5t44.5 6.5t25 13.5t4 22v80l102 -7v-173q-78 -41 -198 -41q-153 0 -233.5 86t-80.5 256q0 94 27 164t73 109q90 75 214 75q100 0 188 -41v-170l-102 -7v78q0 15 -4 22z" />
    <glyph glyph-name="D" unicode="D" horiz-adv-x="665" 
d="M34 0v81l33 3q29 3 29 28v465l-57 3v85h274q147 0 229.5 -78t82.5 -231q0 -95 -25 -165.5t-68 -110.5q-86 -80 -214 -80h-284zM218 568v-472h102q86 0 134 62t48 180q0 230 -195 230h-89z" />
    <glyph glyph-name="E" unicode="E" horiz-adv-x="549" 
d="M509 0h-475v81l33 3q29 3 29 28v465l-57 3v85h458v-166l-102 -7v40q0 17 -5 24t-24 7h-148v-171h231v-102h-231v-187h161q18 0 23 7.5t5 24.5v50l102 -7v-178z" />
    <glyph glyph-name="F" unicode="F" horiz-adv-x="543" 
d="M34 0v81l33 3q29 3 29 28v465l-57 3v85h483v-166l-102 -7v40q0 17 -5 24t-24 7h-173v-177h246v-102h-246v-196l89 -3v-85h-273z" />
    <glyph glyph-name="G" unicode="G" horiz-adv-x="641" 
d="M564 233v-181q-93 -64 -231 -64t-215.5 86.5t-77.5 256.5q0 75 19.5 135t51 99t73.5 65q80 47 181.5 47t189.5 -41v-170l-102 -7v78q0 15 -4 22q-11 19 -91 19q-193 0 -193 -239q0 -252 174 -252q69 0 106 24v149h-1l-77 3v85h249v-80l-23 -2q-16 -2 -22.5 -8.5
t-6.5 -24.5z" />
    <glyph glyph-name="H" unicode="H" horiz-adv-x="712" 
d="M499 117v173h-283v-202l58 -3v-85h-242v81l33 3q29 3 29 28v465l-57 3v85h242v-81l-33 -3q-16 -2 -23 -8.5t-7 -24.5v-155h283v184l-57 3v85h242v-81l-33 -3q-29 -3 -29 -32v-461l57 -3v-85h-242v81l33 3q15 2 22 8.5t7 24.5z" />
    <glyph glyph-name="I" unicode="I" horiz-adv-x="307" 
d="M94 117v460l-57 3v85h242v-81l-33 -3q-29 -3 -29 -32v-461l57 -3v-85h-242v81l33 3q15 2 22 8.5t7 24.5z" />
    <glyph glyph-name="J" unicode="J" horiz-adv-x="474" 
d="M393 134q-17 -147 -197 -147q-94 0 -168 42v175l102 7v-79q0 -15 4 -22t21 -13.5t52.5 -6.5t51.5 21.5t16 69.5v395l-78 4v85h262v-81l-33 -3q-29 -3 -29 -31v-311q0 -71 -4 -105z" />
    <glyph glyph-name="K" unicode="K" horiz-adv-x="622" 
d="M94 117v460l-57 3v85h240v-81l-33 -3q-29 -3 -29 -32v-220l204 248l-56 3v85h234v-81l-33 -3q-19 -2 -40 -28l-142 -174l177 -291l53 -3v-85h-256v81l31 3q20 2 20 16q0 6 -5 16l-99 171l-88 -106v-93l57 -3v-85h-240v81l33 3q15 2 22 8.5t7 24.5z" />
    <glyph glyph-name="L" unicode="L" horiz-adv-x="537" 
d="M507 0h-475v81l33 3q29 3 29 28v465l-57 3v85h241v-81l-33 -3q-29 -3 -29 -32v-446h166q14 0 18.5 7.5t4.5 24.5v70l102 -7v-198z" />
    <glyph glyph-name="M" unicode="M" horiz-adv-x="834" 
d="M248 665l170 -452h2l171 452h198v-81l-33 -3q-30 -3 -29 -35l25 -458l62 -3v-85h-241v81l36 3q27 2 26 26l-19 353h-2l-154 -399h-95l-152 395h-2l-20 -371l65 -3v-85h-236v81l36 3q23 2 25 27l27 465l-61 4v85h201z" />
    <glyph glyph-name="N" unicode="N" horiz-adv-x="705" 
d="M32 0v81l36 3q26 2 26 28v465l-57 3v85h180l283 -459h2v371l-66 3v85h244v-81l-36 -3q-24 -2 -24 -31v-550h-117l-289 466h-2v-378l65 -3v-85h-245z" />
    <glyph glyph-name="O" unicode="O" horiz-adv-x="664" 
d="M544 593q80 -84 80 -256.5t-79.5 -261t-215 -88.5t-212.5 88t-77 256q0 92 27 161.5t71 107.5q89 77 207.5 77t198.5 -84zM165 336q0 -248 172 -248q92 0 129 76q34 67 34 164q0 87 -30 160q-17 40 -51.5 63t-89.5 23t-94.5 -36t-54.5 -87t-15 -115z" />
    <glyph glyph-name="P" unicode="P" horiz-adv-x="590" 
d="M32 0v81l33 3q29 3 29 28v465l-57 3v85h286q112 0 174.5 -52.5t62.5 -157.5t-71 -163.5t-188 -58.5h-85v-145l96 -3v-85h-280zM216 330h72q146 0 146 119q0 72 -37.5 95.5t-119.5 23.5h-61v-238z" />
    <glyph glyph-name="Q" unicode="Q" horiz-adv-x="664" 
d="M623 331q0 -129 -54.5 -212t-157.5 -110v-3q77 -4 147 -46q50 -31 117 -31q15 0 31 2l-12 -96q-14 -1 -27 -1l-99 17q-63 22 -123 50q-68 32 -126 32q-28 0 -56 -6l14 72q-238 31 -238 332q0 92 27 161.5t72 107.5q88 77 206.5 77t198.5 -84t80 -262zM164 336
q0 -248 172 -248q92 0 130 76q33 67 33 164q0 87 -31 160q-16 40 -50.5 63t-89.5 23t-94.5 -36t-54.5 -87t-15 -115z" />
    <glyph glyph-name="R" unicode="R" horiz-adv-x="626" 
d="M32 0v81l33 3q29 3 29 28v465l-57 3v85h273q116 0 178 -43t62 -141q0 -68 -35.5 -112t-84.5 -64q36 -13 57 -61l72 -157l57 -2v-85h-247v81l29 3q23 3 23 18q0 6 -4 14l-47 100q-11 25 -24.5 35.5t-38.5 10.5h-91v-174l65 -3v-85h-249zM216 357h87q123 0 123 110
q0 63 -32.5 82t-104.5 19h-73v-211z" />
    <glyph glyph-name="S" unicode="S" horiz-adv-x="522" 
d="M241 90q120 0 120 96q0 50 -53 74q-28 14 -72.5 26t-74 24.5t-59.5 34.5q-59 44 -59 135.5t63.5 144t166 52.5t190.5 -41v-150l-102 -7v58q0 15 -4 22q-11 19 -70.5 19t-88 -21t-28.5 -65q0 -32 24 -56q16 -16 47.5 -26.5t67 -21.5t63 -24t57.5 -36q61 -45 61 -139
t-67.5 -148t-178 -54t-198.5 41v158l102 7v-61q0 -15 4 -22t24.5 -13.5t64.5 -6.5z" />
    <glyph glyph-name="T" unicode="T" horiz-adv-x="553" 
d="M218 112v454h-78q-23 0 -23 -31v-47l-102 7v170h523v-170l-102 -7v47q0 17 -5 24t-24 7h-68v-478l79 -3v-85h-282v81l53 3q29 3 29 28z" />
    <glyph glyph-name="U" unicode="U" horiz-adv-x="659" 
d="M201 548v-332q0 -70 33.5 -98.5t96 -28.5t97 31t34.5 91v366l-58 3v85h237v-81l-33 -3q-29 -3 -29 -30v-357q0 -97 -68 -152t-188 -55t-181.5 53.5t-61.5 169.5v367l-58 3v85h242v-81l-33 -3q-16 -2 -23 -8.5t-7 -24.5z" />
    <glyph glyph-name="V" unicode="V" horiz-adv-x="654" 
d="M201 546l134 -403h5l140 433l-61 4v85h230v-81l-33 -3q-13 -1 -19 -7.5t-12 -22.5l-189 -551h-130l-204 577l-57 3v85h258v-81l-33 -3q-31 -2 -31 -24q0 -5 2 -11z" />
    <glyph glyph-name="W" unicode="W" horiz-adv-x="885" 
d="M880 584l-33 -3q-26 -2 -33 -36l-126 -545h-137l-105 445h-3l-102 -445h-141l-138 577l-57 3v85h248v-81l-33 -3q-31 -3 -31 -26q0 -4 1 -9l87 -386h4l104 452h129l108 -454h2l85 418l-54 4v85h225v-81z" />
    <glyph glyph-name="X" unicode="X" horiz-adv-x="621" 
d="M521 549l-143 -193l175 -264l63 -4v-88h-278v82l30 3q19 2 26 13.5t-2 24.5l-90 139l-115 -174l48 -3v-85h-230v81l31 3q19 3 38 32l162 232l-152 224l-55 5v88h265v-82l-25 -3q-21 -2 -26.5 -14t4.5 -27l67 -105l97 143l-50 3v85h229v-81l-31 -3q-19 -3 -38 -32z" />
    <glyph glyph-name="Y" unicode="Y" horiz-adv-x="570" 
d="M222 112v142l-170 323l-47 3v85h244v-81l-30 -3q-16 -1 -20.5 -12t3.5 -27l85 -174h4l109 208l-50 4v85h215v-81l-30 -3q-19 -2 -34 -30l-157 -297v-166l78 -3v-85h-282v81l53 3q29 2 29 28z" />
    <glyph glyph-name="Z" unicode="Z" horiz-adv-x="533" 
d="M477 584l-305 -489h194q25 0 25 32v70l102 -7v-190h-460v83l302 487h-166q-27 0 -27 -31v-40l-102 7v159h437v-81z" />
    <glyph glyph-name="bracketleft" unicode="[" horiz-adv-x="325" 
d="M80 -166v880h210v-81h-100v-718h100v-81h-210z" />
    <glyph glyph-name="backslash" unicode="\" horiz-adv-x="440" 
d="M15 718l103 38l307 -828l-103 -37z" />
    <glyph glyph-name="bracketright" unicode="]" horiz-adv-x="325" 
d="M245 714v-880h-210v81h100v718h-100v81h210z" />
    <glyph glyph-name="asciicircum" unicode="^" horiz-adv-x="553" 
d="M509 301l-101 -16l-130 267l-131 -267l-98 17l187 372h87z" />
    <glyph glyph-name="underscore" unicode="_" 
d="M0 -147v73h500v-73h-500z" />
    <glyph glyph-name="grave" unicode="`" 
d="M234 786l116 -192l-39 -33l-128 124q-25 23 -25 43t29 36z" />
    <glyph glyph-name="a" unicode="a" horiz-adv-x="567" 
d="M482 483v-372q0 -16 5.5 -22t19.5 -7l32 -2v-80h-159v58l-3 1q-50 -72 -137 -72q-102 0 -151 65t-49 178q0 136 66 212t198 76q85 0 178 -35zM366 159v259q-28 13 -77 13q-67 0 -97 -54t-30 -143q0 -162 104 -162q44 0 72 26.5t28 60.5z" />
    <glyph glyph-name="b" unicode="b" horiz-adv-x="556" 
d="M77 30v574q0 23 -25 24l-35 2v83h176v-237q45 42 121 42q94 0 149 -63.5t55 -178.5q0 -289 -242 -289q-52 0 -109.5 12.5t-89.5 30.5zM193 354v-259q38 -20 88 -20q114 0 114 185q0 169 -112 169q-36 0 -63 -21t-27 -54z" />
    <glyph glyph-name="c" unicode="c" horiz-adv-x="471" 
d="M186 125q32 -47 92.5 -47t119.5 43l43 -77q-71 -58 -178 -58t-168.5 67.5t-61.5 199.5t70.5 198.5t159 66.5t164.5 -41v-130l-92 -7v48q0 27 -19.5 33.5t-40.5 6.5q-121 0 -121 -171q0 -85 32 -132z" />
    <glyph glyph-name="d" unicode="d" horiz-adv-x="568" 
d="M284 518q43 0 82 -12v101q0 22 -26 24l-43 3v79h186v-608q1 -23 25 -23l35 -2v-80h-162v59l-3 1q-45 -73 -136 -73q-114 0 -160 76q-42 69 -42 169q0 130 64.5 208t179.5 78zM366 156v259q-36 16 -76 16q-66 0 -96.5 -53t-30.5 -135q0 -168 108 -168q41 0 68 23.5
t27 57.5z" />
    <glyph glyph-name="e" unicode="e" horiz-adv-x="484" 
d="M284 518q75 0 119 -36.5t44 -102.5q0 -44 -19 -77.5t-47 -52.5t-68 -31q-67 -20 -151 -20q3 -53 33 -85.5t92 -32.5t124 44l38 -81q-20 -18 -67.5 -37t-108.5 -19q-122 0 -179 67.5t-57 185.5t65 198t182 80zM306 318.5q31 22.5 31 53.5q0 61 -60 61q-56 0 -86 -44.5
t-33 -106.5q44 1 80.5 7.5t67.5 29z" />
    <glyph glyph-name="f" unicode="f" horiz-adv-x="370" 
d="M96 112v307h-86v84h86v38q0 98 45 141q42 41 123 41t144 -35l-29 -80q-48 25 -90 25t-58 -20.5t-16 -62.5v-47h148v-84h-148v-335l84 -4v-80h-265v76l33 3q15 2 22 8.5t7 24.5z" />
    <glyph glyph-name="g" unicode="g" horiz-adv-x="544" 
d="M414 -162q-55 -52 -172 -52t-183 33v139l95 8v-48q0 -27 25 -36.5t69 -9.5q64 0 90 38.5t26 108.5v55q-48 -56 -133 -56q-52 0 -91.5 20t-61.5 54q-43 68 -43 160q0 131 71 198.5t189 67.5q98 0 185 -37v-371q0 -85 -2 -109q-9 -111 -64 -163zM364 204v215q-35 12 -80 12
q-61 0 -93.5 -45t-32.5 -122q0 -158 104 -158q43 0 72.5 26.5t29.5 71.5z" />
    <glyph glyph-name="h" unicode="h" horiz-adv-x="600" 
d="M94 112v487q0 16 -5.5 22t-19.5 7l-35 2v83h178v-269q52 74 146 74q76 0 117.5 -43.5t41.5 -130.5v-261l57 -3v-80h-238v76l33 3q15 2 22 8.5t7 24.5v206q0 52 -16.5 80t-64 28t-76 -29.5t-28.5 -71.5v-242l57 -3v-80h-238v76l33 3q15 2 22 8.5t7 24.5z" />
    <glyph glyph-name="i" unicode="i" horiz-adv-x="296" 
d="M214 503v-420l57 -3v-80h-238v76l33 3q29 3 29 32v278q0 17 -5.5 23t-19.5 6l-35 2v83h179zM67 642q0 32 21 53.5t55 21.5t55.5 -21.5t21.5 -53.5t-21.5 -52.5t-55.5 -20.5t-55 20.5t-21 52.5z" />
    <glyph glyph-name="j" unicode="j" horiz-adv-x="283" 
d="M208 503v-527q0 -80 -26 -130q-33 -60 -134 -60q-72 0 -128 35l36 83q39 -21 71.5 -21t47 20t14.5 68v418q0 16 -5.5 22t-19.5 7l-35 2v83h179zM61 642q0 32 21 53.5t55 21.5t55.5 -21.5t21.5 -53.5t-21.5 -52.5t-55.5 -20.5t-55 20.5t-21 52.5z" />
    <glyph glyph-name="k" unicode="k" horiz-adv-x="556" 
d="M95 112v487q0 16 -5.5 22t-19.5 7l-35 2v83h178v-433q55 5 96 34t56 76q3 10 3 16q0 17 -19 17l-38 2v78h207v-81l-48 -2q-13 -102 -88 -161l98 -176l61 -3v-80h-146l-114 208q-33 -9 -68 -14v-111h1l57 -3v-80h-238v76l33 3q15 2 22 8.5t7 24.5z" />
    <glyph glyph-name="l" unicode="l" horiz-adv-x="298" 
d="M212 713v-630l57 -3v-80h-238v76l33 3q29 3 29 32v493q0 22 -25 24l-35 2v83h179z" />
    <glyph glyph-name="m" unicode="m" horiz-adv-x="866" 
d="M27 422v81h169v-65q56 80 153.5 80t131.5 -80q56 80 152 80q72 0 111 -43.5t39 -130.5v-261l57 -3v-80h-238v76l33 3q15 2 21.5 8.5t7.5 23.5v207q0 55 -12.5 81.5t-58.5 26.5t-70.5 -28t-24.5 -75v-240l55 -3v-80h-236v76l33 3q15 2 22 8.5t7 24.5v206q0 55 -12.5 81.5
t-59 26.5t-70.5 -29t-24 -72v-242l54 -3v-80h-236v76l33 3q15 2 22 8.5t7 24.5h1v276q0 17 -5.5 23.5t-19.5 7.5z" />
    <glyph glyph-name="n" unicode="n" horiz-adv-x="600" 
d="M27 423v80h169v-65q26 37 69 58.5t93 21.5q76 0 117.5 -43.5t41.5 -130.5v-261l57 -3v-80h-238v76l33 3q15 2 22 8.5t7 24.5v206q0 55 -17 81.5t-64.5 26.5t-75.5 -30t-28 -71v-242l57 -3v-80h-238v76l33 3q15 2 22 8.5t7 24.5v277q0 30 -25 31z" />
    <glyph glyph-name="o" unicode="o" horiz-adv-x="528" 
d="M263 73q109 0 109 176q0 89 -24.5 135t-82 46t-84.5 -44t-27 -120q0 -141 52 -177q23 -16 57 -16zM33 252q0 74 22 128.5t59 83.5q71 54 157 54q60 0 101.5 -19.5t65 -45t40 -74t16.5 -114.5q0 -138 -67 -209t-171.5 -71t-163.5 67.5t-59 199.5z" />
    <glyph glyph-name="p" unicode="p" horiz-adv-x="568" 
d="M89 -95v484q0 17 -5.5 23.5t-19.5 6.5l-42 3v81h169v-65q16 30 58 55t100 25q181 0 181 -254q0 -135 -59 -207t-160 -72q-60 0 -107 29v-138l81 -4v-79h-258v76l33 3q15 2 22 8.5t7 24.5zM406 254q0 167 -101 167q-42 0 -71.5 -25.5t-29.5 -60.5v-230q38 -25 92.5 -25
t82 50t27.5 124z" />
    <glyph glyph-name="q" unicode="q" horiz-adv-x="551" 
d="M367 -95v138q-48 -56 -125 -56t-122.5 38.5t-62.5 90.5t-17 114q0 146 69.5 217t188.5 71q98 0 185 -37v-605l58 -3v-80h-263v76l59 3q15 1 22.5 8t7.5 25zM366 164v255q-34 12 -79 12q-60 0 -92 -51.5t-32 -133.5q0 -122 49 -156q22 -15 61 -15t66 23t27 66z" />
    <glyph glyph-name="r" unicode="r" horiz-adv-x="462" 
d="M95 112v277q0 16 -5.5 22.5t-19.5 7.5l-42 3v81h169v-75q18 39 56 64.5t87.5 25.5t94.5 -22v-149l-93 -7v46q0 20 -10 25q-11 5 -27 5q-40 0 -65.5 -28.5t-25.5 -72.5v-232l87 -4v-79h-268v76l33 3q15 2 22 8.5t7 24.5z" />
    <glyph glyph-name="s" unicode="s" horiz-adv-x="451" 
d="M295 427q-24 9 -58 9t-54.5 -15.5t-20.5 -38t7.5 -35t23.5 -21.5q25 -13 60 -22.5t52 -15t42.5 -18.5t38.5 -28q35 -37 35 -95q0 -75 -54.5 -117.5t-138.5 -42.5q-122 0 -184 31v139l90 7v-48q0 -44 84 -44t84 61q0 22 -14.5 36t-28.5 19t-33.5 10t-38 10t-40 13.5
t-47.5 24.5q-51 33 -51 110.5t55 119.5t138.5 42t165.5 -40v-120l-90 -7v42q0 25 -23 34z" />
    <glyph glyph-name="t" unicode="t" horiz-adv-x="377" 
d="M144 609h65v-106h133l-10 -84h-123v-263q0 -44 16 -61.5t49.5 -17.5t67.5 21l30 -77q-50 -35 -127 -35q-45 0 -76 11.5t-46 25.5t-23 41t-9 42.5t-1 45.5v267h-71l10 73q47 4 71 33.5t44 83.5z" />
    <glyph glyph-name="u" unicode="u" horiz-adv-x="591" 
d="M563 79v-79h-162v65q-55 -78 -162 -78q-155 0 -155 173v231q0 27 -25 28l-32 2v82h176v-317q0 -53 15 -80t62 -27t75.5 29t28.5 70v211q0 16 -5.5 22.5t-19.5 7.5l-32 2v82h176v-392q0 -16 5 -21.5t20 -7.5z" />
    <glyph glyph-name="v" unicode="v" horiz-adv-x="558" 
d="M337 503h211v-78l-31 -2q-20 -2 -27 -24l-129 -399h-153l-140 398q-5 14 -10.5 19t-18.5 6l-29 2v78h235v-80l-61 -3l103 -329h2l100 329l-52 3v80z" />
    <glyph glyph-name="w" unicode="w" horiz-adv-x="795" 
d="M364 483h97l104 -372h2l68 309l-51 3v80h201v-77l-33 -2q-20 -2 -27 -24l-95 -400h-144l-82 298h-3l-85 -298h-147l-101 399q-5 14 -10.5 19t-18.5 6l-29 2v77h229v-80l-56 -3l69 -307h2z" />
    <glyph glyph-name="x" unicode="x" horiz-adv-x="534" 
d="M319 106l-61 80l-83 -103l47 -3v-80h-208v79l31 3q23 3 40 24l115 144l-123 170l-51 6v77h233v-79l-29 -2q-12 -1 -15.5 -9t3.5 -17l57 -76l77 100l-41 3v80h203v-78l-30 -2q-21 -1 -40 -25l-110 -139l131 -174l51 -6v-79h-238v79l31 2q13 1 15.5 8.5t-5.5 16.5z" />
    <glyph glyph-name="y" unicode="y" horiz-adv-x="573" 
d="M401 19v76q-55 -78 -162 -78q-155 0 -155 173v201q0 27 -25 28l-32 2v82h176v-287q0 -53 15 -80t62 -27t75.5 29t28.5 70v181q0 17 -5.5 23.5t-19.5 6.5l-32 2v82h176v-484q0 -121 -58.5 -177t-177 -56t-184.5 33v139l95 8v-48q0 -27 25 -36.5t69 -9.5q129 0 129 147z
" />
    <glyph glyph-name="z" unicode="z" horiz-adv-x="483" 
d="M448 0h-408v76l257 338h-126q-21 0 -26.5 -8t-5.5 -26v-35l-94 7v151h398v-68l-260 -345h142q29 0 29 34v42l94 -7v-159z" />
    <glyph glyph-name="braceleft" unicode="{" horiz-adv-x="340" 
d="M205 570l9 -163q0 -51 -15 -81t-51 -45q38 -13 52 -39.5t14 -81.5l-11 -176q0 -39 9.5 -57t34.5 -18t45 5l10 -76q-42 -9 -79 -9q-61 0 -94.5 34t-33.5 93l11 191q0 42 -11.5 67t-51.5 30v74q41 5 52.5 29t11.5 74l-8 169q0 61 32 95t94 34q40 0 80 -10l-10 -74
q-28 5 -40 5q-31 0 -40.5 -15.5t-9.5 -54.5z" />
    <glyph glyph-name="bar" unicode="|" horiz-adv-x="274" 
d="M85 -88v835h104v-835h-104z" />
    <glyph glyph-name="braceright" unicode="}" horiz-adv-x="340" 
d="M137 -16l-11 176q0 55 14 81.5t52 39.5q-36 15 -51 45t-15 81l9 163q0 39 -9.5 54.5t-40.5 15.5q-12 0 -40 -5l-10 74q40 10 80 10q62 0 94 -34t32 -95l-8 -169q0 -50 11.5 -74t52.5 -29v-74q-40 -5 -51.5 -30t-11.5 -67l11 -191q0 -59 -33.5 -93t-94.5 -34q-37 0 -79 9
l10 76q20 -5 45 -5t34.5 18t9.5 57z" />
    <glyph glyph-name="asciitilde" unicode="~" horiz-adv-x="598" 
d="M405 218q-46 0 -112 36.5t-90 36.5q-41 0 -84 -65l-72 56q63 106 146 106q43 0 108.5 -38t95.5 -38q45 0 81 64l73 -54q-49 -104 -146 -104z" />
    <glyph glyph-name="uni00A0" unicode="&#xa0;" horiz-adv-x="207" 
 />
    <glyph glyph-name="exclamdown" unicode="&#xa1;" horiz-adv-x="277" 
d="M193 -28v-119q0 -47 -56 -47t-56 49v117l20 349h71zM188.5 499q18.5 -19 18.5 -47t-19 -47.5t-49.5 -19.5t-49.5 18.5t-19 46.5t18.5 48t50 20t50 -19z" />
    <glyph glyph-name="cent" unicode="&#xa2;" horiz-adv-x="535" 
d="M270 -60v110q-91 14 -143 78.5t-52 178.5t55.5 179.5t139.5 82.5v116h75v-112q71 -4 139 -40v-130l-92 -7v48q0 27 -21 34q-15 4 -26 5v-344q51 3 105 43l43 -77q-63 -50 -148 -57v-108h-75zM270 472q-74 -35 -74 -160t74 -160v320z" />
    <glyph glyph-name="sterling" unicode="&#xa3;" horiz-adv-x="552" 
d="M116 210l6 79h-84l10 84h80l6 86q14 198 219 198q93 0 170 -41v-140l-102 -7v47q0 15 -3.5 22t-20.5 14t-43 7q-51 0 -75.5 -25.5t-28.5 -83.5l-6 -77h175l-10 -83h-170l-3 -41q-6 -84 -87 -146l2 -4q54 20 82 20t82 -10t95 -10t90 14l-13 -107q-48 -9 -92 -9t-118 12.5
t-126 12.5t-119 -30v93q77 36 84 125z" />
    <glyph glyph-name="yen" unicode="&#xa5;" horiz-adv-x="550" 
d="M59 296v76h113l-120 205l-47 3v85h244v-81l-30 -3q-16 -1 -20.5 -12t3.5 -27l75 -154h4l99 188l-50 4v85h215v-81l-30 -3q-19 -2 -34 -30l-107 -179h113v-76h-153v-65h153v-76h-153v-67l78 -3v-85h-282v81l53 3q29 2 29 28v43h-153v76h153v65h-153z" />
    <glyph glyph-name="brokenbar" unicode="&#xa6;" horiz-adv-x="275" 
d="M85 -88v374h105v-374h-105zM85 403v344h105v-344h-105z" />
    <glyph glyph-name="section" unicode="&#xa7;" horiz-adv-x="552" 
d="M407 35q13 -34 13 -67t-8 -59t-26.5 -53.5t-56.5 -44t-90 -16.5q-83 0 -158 39v132l92 7v-48q0 -28 19 -34t48.5 -6t50 18.5t20.5 49.5q0 21 -7 33.5t-11 19t-14 15t-15.5 13.5t-19.5 13.5t-20 12.5q-31 19 -44 26q-71 42 -104 82.5t-33 99.5q0 87 84 159
q-13 29 -13 64.5t8 61.5t26.5 53.5t56.5 44t90 16.5q79 0 158 -41v-130l-92 -7v48q0 28 -19 34t-48.5 6t-50 -18.5t-20.5 -49.5q0 -49 66 -93q9 -6 33 -20q93 -56 130 -101t37 -105q0 -85 -82 -155zM242 183q16 -10 59 -39.5t51 -36.5q29 26 29 66q0 20 -5 29.5t-7.5 14.5
t-10.5 12.5t-11.5 11t-15.5 12t-17.5 12.5t-21.5 14q-81 51 -110 76q-29 -27 -29 -66q0 -20 5 -29.5t7.5 -14.5t10.5 -12.5t11.5 -11t15.5 -12t17.5 -12.5t21.5 -14z" />
    <glyph glyph-name="dieresis" unicode="&#xa8;" 
d="M302 599.5q-19 18.5 -19 47t19.5 48t49.5 19.5t49.5 -19.5t19.5 -48t-19.5 -47t-50 -18.5t-49.5 18.5zM102 599.5q-19 18.5 -19 47t19.5 48t49.5 19.5t49.5 -19.5t19.5 -48t-19.5 -47t-50 -18.5t-49.5 18.5z" />
    <glyph glyph-name="copyright" unicode="&#xa9;" horiz-adv-x="814" 
d="M654 576q99 -100 99 -247.5t-99 -248t-254 -100.5t-247.5 96t-92.5 247t96.5 252t247.5 101t250 -100zM597 130.5q77 78.5 77 197.5t-77.5 197.5t-194 78.5t-190 -79.5t-73.5 -201.5t73.5 -196.5t190.5 -74.5t194 78.5zM409 198q45 0 96 42l40 -54q-54 -56 -139 -56
t-129.5 53.5t-44.5 147.5q0 55 16.5 96t43.5 62q53 41 113 41q95 0 150 -75l-56 -44q-46 50 -90 50t-70.5 -30.5t-26.5 -98.5q0 -134 97 -134z" />
    <glyph glyph-name="ordfeminine" unicode="&#xaa;" horiz-adv-x="414" 
d="M280 264v38h-4q-37 -46 -99.5 -46t-95.5 46.5t-33 125.5t47.5 130.5t134.5 51.5q63 0 128 -24v-244q0 -11 4.5 -15t16.5 -5l17 -1v-57h-116zM266 369v164q-22 8 -46 8q-40 0 -60 -31.5t-20 -80.5q0 -105 66 -105q26 0 43 14.5t17 30.5z" />
    <glyph glyph-name="guillemotleft" unicode="&#xab;" horiz-adv-x="530" 
d="M293 406l-120 -143l113 -160l-47 -42l-174 161q-18 17 -18 43.5t29 49.5l170 136zM497 406l-120 -143l113 -160l-47 -42l-174 161q-18 17 -18 43.5t29 49.5l170 136z" />
    <glyph glyph-name="logicalnot" unicode="&#xac;" horiz-adv-x="535" 
d="M385 171v144h-333v97h429v-241h-96z" />
    <glyph glyph-name="uni00AD" unicode="&#xad;" horiz-adv-x="322" 
d="M42 244v93h237v-93h-237z" />
    <glyph glyph-name="registered" unicode="&#xae;" horiz-adv-x="463" 
d="M287 459l36 -81h-50l-31 70q-6 14 -16 14h-19v-84h-45v211h76q70 0 70 -57q0 -42 -34 -58q8 -4 13 -15zM207 498h16q36 0 36 30q0 25 -36 25h-16v-55zM375.5 621.5q57.5 -55.5 57.5 -140t-57 -140t-147.5 -55.5t-144.5 54.5t-54 140t56 141t144 55.5t145.5 -55.5z
M338 372q42 41 42 107.5t-43 109t-108.5 42.5t-105.5 -42t-40 -108t41 -108t106.5 -42t107.5 41z" />
    <glyph glyph-name="macron" unicode="&#xaf;" 
d="M104 610v84h287v-84h-287z" />
    <glyph glyph-name="degree" unicode="&#xb0;" horiz-adv-x="298" 
d="M64.5 513.5q-29.5 32.5 -29.5 83t32 84t83 33.5t82 -32.5t31 -82.5t-32 -84t-84.5 -34t-82 32.5zM97 596q0 -26 13.5 -42.5t38.5 -16.5t38 16.5t13 42.5q0 61 -51.5 61t-51.5 -61z" />
    <glyph glyph-name="plusminus" unicode="&#xb1;" horiz-adv-x="535" 
d="M214 364v156h102v-156h154v-98h-154v-134h154v-97h-405v97h149v134h-149v98h149z" />
    <glyph glyph-name="twosuperior" unicode="&#xb2;" horiz-adv-x="337" 
d="M23 700q72 37 141 37t101 -28t32 -66.5t-13.5 -64.5t-42.5 -61l-89 -101h158v-75h-275v58l124 144q44 52 44 76q0 46 -47 46q-27 0 -40 -5.5t-15 -10.5t-2 -17v-45l-76 4v109z" />
    <glyph glyph-name="threesuperior" unicode="&#xb3;" horiz-adv-x="337" 
d="M98 571h65q38 22 38 55q0 41 -50 41q-21 0 -35 -4.5t-14 -22.5v-33l-70 5v95q62 30 127 30t97 -26.5t32 -69.5q0 -58 -57 -97q64 -20 64 -85q0 -55 -37.5 -89t-110.5 -34t-123 31l23 65q50 -26 98 -26q63 0 63 47q0 27 -19.5 39.5t-64.5 12.5h-32z" />
    <glyph glyph-name="acute" unicode="&#xb4;" 
d="M148 594l116 192l47 -22q29 -16 29 -36t-25 -43l-128 -124z" />
    <glyph glyph-name="mu" unicode="&#xb5;" horiz-adv-x="584" 
d="M504 503v-400q0 -33 26 -33q14 0 39 12l14 -70q-43 -24 -91 -24q-75 0 -79 81q-16 -37 -51 -60t-78 -23q-70 0 -103 49v-251h-107v719h112v-289q0 -70 22 -107t74 -37t80 43.5t28 117.5v272h114z" />
    <glyph glyph-name="paragraph" unicode="&#xb6;" horiz-adv-x="549" 
d="M457 549v-468q0 -131 -51 -194t-194 -92l-25 98q88 21 121.5 59t33.5 110v517h-72v-364q-95 2 -157 56.5t-62 167.5t66 169.5t175 56.5h227v-81l-33 -3q-29 -3 -29 -32z" />
    <glyph glyph-name="periodcentered" unicode="&#xb7;" horiz-adv-x="309" 
d="M103.5 257.5q-18.5 18.5 -18.5 49t18.5 49.5t50.5 19t51 -18.5t19 -48.5t-18.5 -49.5t-51 -19.5t-51 18.5z" />
    <glyph glyph-name="cedilla" unicode="&#xb8;" 
d="M212 3h57l-17 -66q42 -3 67.5 -24t25.5 -64.5t-36.5 -67t-85.5 -23.5t-90 18l16 52q39 -13 67 -13q48 0 48 37.5t-88 37.5z" />
    <glyph glyph-name="onesuperior" unicode="&#xb9;" horiz-adv-x="316" 
d="M61 407l59 4q16 1 16 16v212l-81 -36l-29 57l125 71h73v-320l70 -3v-67h-233v66z" />
    <glyph glyph-name="ordmasculine" unicode="&#xba;" horiz-adv-x="406" 
d="M136 442q0 -111 66.5 -111t66.5 101q0 53 -15.5 79t-52.5 26q-65 0 -65 -95zM42 430q0 136 108 172q27 9 56 9q64 0 110.5 -38.5t46.5 -128.5t-45 -139t-119.5 -49t-115.5 46.5t-41 127.5z" />
    <glyph glyph-name="guillemotright" unicode="&#xbb;" horiz-adv-x="530" 
d="M154 263l-120 145l47 45l170 -136q29 -23 29 -50.5t-20 -45.5l-172 -158l-47 42zM358 263l-120 145l47 45l170 -136q29 -23 29 -50.5t-20 -45.5l-172 -158l-47 42z" />
    <glyph glyph-name="onequarter" unicode="&#xbc;" horiz-adv-x="825" 
d="M62 327l59 4q16 1 16 16v212l-81 -36l-29 57l125 71h73v-320l70 -3v-67h-233v66zM284 -41l-76 35l324 692l78 -33zM624 86v27h-152v58l112 232l69 -32l-92 -189h68l29 76h53v-76h61v-71h-61v-41l71 -3v-67h-233v66l59 4q16 1 16 16z" />
    <glyph glyph-name="onehalf" unicode="&#xbd;" horiz-adv-x="825" 
d="M64 327l59 4q16 1 16 16v212l-81 -36l-29 57l125 71h73v-320l70 -3v-67h-233v66zM277 -41l-76 35l324 692l78 -33zM497 359q72 37 141 37t101 -28t32 -66.5t-13.5 -64.5t-42.5 -61l-89 -101h158v-75h-275v58l124 144q44 52 44 76q0 46 -47 46q-27 0 -40 -5.5t-15 -10.5
t-2 -17v-45l-76 4v109z" />
    <glyph glyph-name="threequarters" unicode="&#xbe;" horiz-adv-x="825" 
d="M124 491h65q38 22 38 55q0 41 -50 41q-21 0 -35 -4.5t-14 -22.5v-33l-70 5v95q62 30 127 30t97 -26.5t32 -69.5q0 -58 -57 -97q64 -20 64 -85q0 -55 -37.5 -89t-110.5 -34t-123 31l23 65q50 -26 98 -26q63 0 63 47q0 27 -19.5 39.5t-64.5 12.5h-32zM294 -41l-76 35
l324 692l78 -33zM635 86v27h-152v58l112 232l69 -32l-92 -189h68l29 76h53v-76h61v-71h-61v-41l71 -3v-67h-233v66l59 4q16 1 16 16z" />
    <glyph glyph-name="questiondown" unicode="&#xbf;" horiz-adv-x="433" 
d="M164 -37q0 -63 69 -63q23 0 43 5.5t23.5 13.5t3.5 24v53l102 -7v-137q-96 -46 -183.5 -46t-130.5 41t-43 106.5t26.5 103t68.5 68t53 44.5t12 42l5 110h96l5 -105v-15q0 -44 -16 -73q-18 -32 -79 -76q-33 -24 -38 -32.5t-9 -17.5q-8 -14 -8 -39zM310.5 499
q18.5 -19 18.5 -47t-19 -47.5t-49.5 -19.5t-49.5 18.5t-19 46.5t18.5 48t50 20t50 -19z" />
    <glyph glyph-name="Agrave" unicode="&#xc0;" horiz-adv-x="662" 
d="M68 112l161 466l-63 6v81h229l204 -577h1l57 -3v-85h-258v81l38 3q17 2 23 8t1 22l-21 62h-234l-30 -88l60 -3v-85h-231v81l33 3q21 2 30 28zM323 553l-93 -285h186l-90 285h-3zM237 907l162 -157l-30 -41l-155 87q-36 20 -36 40t19 38z" />
    <glyph glyph-name="Aacute" unicode="&#xc1;" horiz-adv-x="662" 
d="M68 112l161 466l-63 6v81h229l204 -577h1l57 -3v-85h-258v81l38 3q17 2 23 8t1 22l-21 62h-234l-30 -88l60 -3v-85h-231v81l33 3q21 2 30 28zM323 553l-93 -285h186l-90 285h-3zM221 750l162 157l40 -33q18 -17 18 -33q0 -25 -35 -45l-155 -87z" />
    <glyph glyph-name="Acircumflex" unicode="&#xc2;" horiz-adv-x="662" 
d="M68 112l161 466l-63 6v81h229l204 -577h1l57 -3v-85h-258v81l38 3q17 2 23 8t1 22l-21 62h-234l-30 -88l60 -3v-85h-231v81l33 3q21 2 30 28zM323 553l-93 -285h186l-90 285h-3zM181 708l-41 34l118 128q21 23 42 23l40 -21l120 -129l-41 -35l-120 86z" />
    <glyph glyph-name="Atilde" unicode="&#xc3;" horiz-adv-x="662" 
d="M68 112l161 466l-63 6v81h229l204 -577h1l57 -3v-85h-258v81l38 3q17 2 23 8t1 22l-21 62h-234l-30 -88l60 -3v-85h-231v81l33 3q21 2 30 28zM323 553l-93 -285h186l-90 285h-3zM184 728l-48 35q36 79 102 79q24 0 70 -14t67.5 -14t40.5 32l54 -29q-33 -87 -103 -87
q-21 0 -65 13.5t-62 13.5t-29 -5.5t-27 -23.5z" />
    <glyph glyph-name="Adieresis" unicode="&#xc4;" horiz-adv-x="662" 
d="M68 112l161 466l-63 6v81h229l204 -577h1l57 -3v-85h-258v81l38 3q17 2 23 8t1 22l-21 62h-234l-30 -88l60 -3v-85h-231v81l33 3q21 2 30 28zM323 553l-93 -285h186l-90 285h-3zM353 739.5q-19 18.5 -19 47t19.5 48t49.5 19.5t49.5 -19.5t19.5 -48t-19.5 -47t-50 -18.5
t-49.5 18.5zM153 739.5q-19 18.5 -19 47t19.5 48t49.5 19.5t49.5 -19.5t19.5 -48t-19.5 -47t-50 -18.5t-49.5 18.5z" />
    <glyph glyph-name="Aring" unicode="&#xc5;" horiz-adv-x="662" 
d="M68 112l161 466l-63 6v81h229l204 -577h1l57 -3v-85h-258v81l38 3q17 2 23 8t1 22l-21 62h-234l-30 -88l60 -3v-85h-231v81l33 3q21 2 30 28zM323 553l-93 -285h186l-90 285h-3zM234.5 726.5q-24.5 26.5 -24.5 67t26.5 66.5t69 26t67.5 -25.5t25 -65.5t-26 -67.5
t-69.5 -27.5t-68 26.5zM305 834q-36 0 -36 -41.5t36 -41.5q17 0 26.5 12t9.5 30q0 41 -36 41z" />
    <glyph glyph-name="AE" unicode="&#xc6;" horiz-adv-x="854" 
d="M63 112l161 466l-63 6v81h641v-166l-102 -7v40q0 17 -5 24t-24 7h-225l59 -171h249v-102h-231l66 -187h95q18 0 23 7.5t5 24.5v50l102 -7v-178h-420v81l38 3q17 2 23 8t1 22l-21 62h-234l-30 -88l60 -3v-85h-231v81l33 3q21 2 30 28zM318 553l-93 -285h186l-90 285h-3z
" />
    <glyph glyph-name="Ccedilla" unicode="&#xc7;" horiz-adv-x="602" 
d="M436 559q-11 19 -82 19q-93 0 -141 -63t-48 -182q0 -247 185 -247h26.5t44.5 6.5t25 13.5t4 22v80l102 -7v-173q-78 -41 -197 -41l-13 -50q42 -3 67.5 -24t25.5 -64.5t-36.5 -67t-85.5 -23.5t-90 18l16 52q39 -13 67 -13q48 0 48 37.5t-88 37.5l32 101q-126 14 -192 99.5
t-66 238.5q0 94 27 164t73 109q90 75 214 75q100 0 188 -41v-170l-102 -7v78q0 15 -4 22z" />
    <glyph glyph-name="Egrave" unicode="&#xc8;" horiz-adv-x="549" 
d="M509 0h-475v81l33 3q29 3 29 28v465l-57 3v85h458v-166l-102 -7v40q0 17 -5 24t-24 7h-148v-171h231v-102h-231v-187h161q18 0 23 7.5t5 24.5v50l102 -7v-178zM214 907l162 -157l-30 -41l-155 87q-36 20 -36 40t19 38z" />
    <glyph glyph-name="Eacute" unicode="&#xc9;" horiz-adv-x="549" 
d="M509 0h-475v81l33 3q29 3 29 28v465l-57 3v85h458v-166l-102 -7v40q0 17 -5 24t-24 7h-148v-171h231v-102h-231v-187h161q18 0 23 7.5t5 24.5v50l102 -7v-178zM184 750l162 157l40 -33q18 -17 18 -33q0 -25 -35 -45l-155 -87z" />
    <glyph glyph-name="Ecircumflex" unicode="&#xca;" horiz-adv-x="549" 
d="M509 0h-475v81l33 3q29 3 29 28v465l-57 3v85h458v-166l-102 -7v40q0 17 -5 24t-24 7h-148v-171h231v-102h-231v-187h161q18 0 23 7.5t5 24.5v50l102 -7v-178zM155 708l-41 34l118 128q21 23 42 23l40 -21l120 -129l-41 -35l-120 86z" />
    <glyph glyph-name="Edieresis" unicode="&#xcb;" horiz-adv-x="549" 
d="M509 0h-475v81l33 3q29 3 29 28v465l-57 3v85h458v-166l-102 -7v40q0 17 -5 24t-24 7h-148v-171h231v-102h-231v-187h161q18 0 23 7.5t5 24.5v50l102 -7v-178zM326 739.5q-19 18.5 -19 47t19.5 48t49.5 19.5t49.5 -19.5t19.5 -48t-19.5 -47t-50 -18.5t-49.5 18.5z
M126 739.5q-19 18.5 -19 47t19.5 48t49.5 19.5t49.5 -19.5t19.5 -48t-19.5 -47t-50 -18.5t-49.5 18.5z" />
    <glyph glyph-name="Igrave" unicode="&#xcc;" horiz-adv-x="307" 
d="M94 117v460l-57 3v85h242v-81l-33 -3q-29 -3 -29 -32v-461l57 -3v-85h-242v81l33 3q15 2 22 8.5t7 24.5zM86 907l162 -157l-30 -41l-155 87q-36 20 -36 40t19 38z" />
    <glyph glyph-name="Iacute" unicode="&#xcd;" horiz-adv-x="307" 
d="M94 117v460l-57 3v85h242v-81l-33 -3q-29 -3 -29 -32v-461l57 -3v-85h-242v81l33 3q15 2 22 8.5t7 24.5zM64 750l162 157l40 -33q18 -17 18 -33q0 -25 -35 -45l-155 -87z" />
    <glyph glyph-name="Icircumflex" unicode="&#xce;" horiz-adv-x="307" 
d="M94 117v460l-57 3v85h242v-81l-33 -3q-29 -3 -29 -32v-461l57 -3v-85h-242v81l33 3q15 2 22 8.5t7 24.5zM38 708l-41 34l118 128q21 23 42 23l40 -21l120 -129l-41 -35l-120 86z" />
    <glyph glyph-name="Idieresis" unicode="&#xcf;" horiz-adv-x="307" 
d="M94 117v460l-57 3v85h242v-81l-33 -3q-29 -3 -29 -32v-461l57 -3v-85h-242v81l33 3q15 2 22 8.5t7 24.5zM209 739.5q-19 18.5 -19 47t19.5 48t49.5 19.5t49.5 -19.5t19.5 -48t-19.5 -47t-50 -18.5t-49.5 18.5zM9 739.5q-19 18.5 -19 47t19.5 48t49.5 19.5t49.5 -19.5
t19.5 -48t-19.5 -47t-50 -18.5t-49.5 18.5z" />
    <glyph glyph-name="Eth" unicode="&#xd0;" horiz-adv-x="679" 
d="M48 0v81l33 3q29 3 29 28v178h-74v90h74v197l-57 3v85h274q147 0 229.5 -78t82.5 -231q0 -95 -25 -165.5t-68 -110.5q-86 -80 -214 -80h-284zM232 568v-188h169v-90h-169v-194h102q86 0 134 62t48 180q0 230 -195 230h-89z" />
    <glyph glyph-name="Ntilde" unicode="&#xd1;" horiz-adv-x="705" 
d="M32 0v81l36 3q26 2 26 28v465l-57 3v85h180l283 -459h2v371l-66 3v85h244v-81l-36 -3q-24 -2 -24 -31v-550h-117l-289 466h-2v-378l65 -3v-85h-245zM222 728l-48 35q36 79 102 79q24 0 70 -14t67.5 -14t40.5 32l54 -29q-33 -87 -103 -87q-21 0 -65 13.5t-62 13.5
t-29 -5.5t-27 -23.5z" />
    <glyph glyph-name="Ograve" unicode="&#xd2;" horiz-adv-x="664" 
d="M544 593q80 -84 80 -256.5t-79.5 -261t-215 -88.5t-212.5 88t-77 256q0 92 27 161.5t71 107.5q89 77 207.5 77t198.5 -84zM165 336q0 -248 172 -248q92 0 129 76q34 67 34 164q0 87 -30 160q-17 40 -51.5 63t-89.5 23t-94.5 -36t-54.5 -87t-15 -115zM282 907l162 -157
l-30 -41l-155 87q-36 20 -36 40t19 38z" />
    <glyph glyph-name="Oacute" unicode="&#xd3;" horiz-adv-x="664" 
d="M544 593q80 -84 80 -256.5t-79.5 -261t-215 -88.5t-212.5 88t-77 256q0 92 27 161.5t71 107.5q89 77 207.5 77t198.5 -84zM165 336q0 -248 172 -248q92 0 129 76q34 67 34 164q0 87 -30 160q-17 40 -51.5 63t-89.5 23t-94.5 -36t-54.5 -87t-15 -115zM237 750l162 157
l40 -33q18 -17 18 -33q0 -25 -35 -45l-155 -87z" />
    <glyph glyph-name="Ocircumflex" unicode="&#xd4;" horiz-adv-x="664" 
d="M544 593q80 -84 80 -256.5t-79.5 -261t-215 -88.5t-212.5 88t-77 256q0 92 27 161.5t71 107.5q89 77 207.5 77t198.5 -84zM165 336q0 -248 172 -248q92 0 129 76q34 67 34 164q0 87 -30 160q-17 40 -51.5 63t-89.5 23t-94.5 -36t-54.5 -87t-15 -115zM220 708l-41 34
l118 128q21 23 42 23l40 -21l120 -129l-41 -35l-120 86z" />
    <glyph glyph-name="Otilde" unicode="&#xd5;" horiz-adv-x="664" 
d="M544 593q80 -84 80 -256.5t-79.5 -261t-215 -88.5t-212.5 88t-77 256q0 92 27 161.5t71 107.5q89 77 207.5 77t198.5 -84zM165 336q0 -248 172 -248q92 0 129 76q34 67 34 164q0 87 -30 160q-17 40 -51.5 63t-89.5 23t-94.5 -36t-54.5 -87t-15 -115zM220 728l-48 35
q36 79 102 79q24 0 70 -14t67.5 -14t40.5 32l54 -29q-33 -87 -103 -87q-21 0 -65 13.5t-62 13.5t-29 -5.5t-27 -23.5z" />
    <glyph glyph-name="Odieresis" unicode="&#xd6;" horiz-adv-x="664" 
d="M544 593q80 -84 80 -256.5t-79.5 -261t-215 -88.5t-212.5 88t-77 256q0 92 27 161.5t71 107.5q89 77 207.5 77t198.5 -84zM165 336q0 -248 172 -248q92 0 129 76q34 67 34 164q0 87 -30 160q-17 40 -51.5 63t-89.5 23t-94.5 -36t-54.5 -87t-15 -115zM388 739.5
q-19 18.5 -19 47t19.5 48t49.5 19.5t49.5 -19.5t19.5 -48t-19.5 -47t-50 -18.5t-49.5 18.5zM188 739.5q-19 18.5 -19 47t19.5 48t49.5 19.5t49.5 -19.5t19.5 -48t-19.5 -47t-50 -18.5t-49.5 18.5z" />
    <glyph glyph-name="multiply" unicode="&#xd7;" horiz-adv-x="535" 
d="M197 314l-114 114l72 72l114 -114l112 112l69 -69l-112 -113l113 -113l-72 -72l-113 113l-113 -113l-70 69z" />
    <glyph glyph-name="Oslash" unicode="&#xd8;" horiz-adv-x="664" 
d="M528 608q96 -89 96 -266.5t-79.5 -266t-214.5 -88.5q-56 0 -107 16l-50 -103l-87 42l53 110q-99 88 -99 279q0 92 27 161.5t71 107.5q89 77 203 77q54 0 103 -17l44 91l89 -41zM165 336q0 -110 34 -172l192 400q-28 10 -56 10q-61 0 -100.5 -36t-54.5 -87t-15 -115z
M466 495l-191 -397q26 -10 67 -10t74 20t50 56q34 67 34 166.5t-34 164.5z" />
    <glyph glyph-name="Ugrave" unicode="&#xd9;" horiz-adv-x="659" 
d="M201 548v-332q0 -70 33.5 -98.5t96 -28.5t97 31t34.5 91v366l-58 3v85h237v-81l-33 -3q-29 -3 -29 -30v-357q0 -97 -68 -152t-188 -55t-181.5 53.5t-61.5 169.5v367l-58 3v85h242v-81l-33 -3q-16 -2 -23 -8.5t-7 -24.5zM257 907l162 -157l-30 -41l-155 87q-36 20 -36 40
t19 38z" />
    <glyph glyph-name="Uacute" unicode="&#xda;" horiz-adv-x="659" 
d="M201 548v-332q0 -70 33.5 -98.5t96 -28.5t97 31t34.5 91v366l-58 3v85h237v-81l-33 -3q-29 -3 -29 -30v-357q0 -97 -68 -152t-188 -55t-181.5 53.5t-61.5 169.5v367l-58 3v85h242v-81l-33 -3q-16 -2 -23 -8.5t-7 -24.5zM243 750l162 157l40 -33q18 -17 18 -33
q0 -25 -35 -45l-155 -87z" />
    <glyph glyph-name="Ucircumflex" unicode="&#xdb;" horiz-adv-x="659" 
d="M201 548v-332q0 -70 33.5 -98.5t96 -28.5t97 31t34.5 91v366l-58 3v85h237v-81l-33 -3q-29 -3 -29 -30v-357q0 -97 -68 -152t-188 -55t-181.5 53.5t-61.5 169.5v367l-58 3v85h242v-81l-33 -3q-16 -2 -23 -8.5t-7 -24.5zM209 708l-41 34l118 128q21 23 42 23l40 -21
l120 -129l-41 -35l-120 86z" />
    <glyph glyph-name="Udieresis" unicode="&#xdc;" horiz-adv-x="659" 
d="M201 548v-332q0 -70 33.5 -98.5t96 -28.5t97 31t34.5 91v366l-58 3v85h237v-81l-33 -3q-29 -3 -29 -30v-357q0 -97 -68 -152t-188 -55t-181.5 53.5t-61.5 169.5v367l-58 3v85h242v-81l-33 -3q-16 -2 -23 -8.5t-7 -24.5zM388 739.5q-19 18.5 -19 47t19.5 48t49.5 19.5
t49.5 -19.5t19.5 -48t-19.5 -47t-50 -18.5t-49.5 18.5zM188 739.5q-19 18.5 -19 47t19.5 48t49.5 19.5t49.5 -19.5t19.5 -48t-19.5 -47t-50 -18.5t-49.5 18.5z" />
    <glyph glyph-name="Yacute" unicode="&#xdd;" horiz-adv-x="570" 
d="M222 112v142l-170 323l-47 3v85h244v-81l-30 -3q-16 -1 -20.5 -12t3.5 -27l85 -174h4l109 208l-50 4v85h215v-81l-30 -3q-19 -2 -34 -30l-157 -297v-166l78 -3v-85h-282v81l53 3q29 2 29 28zM191 750l162 157l40 -33q18 -17 18 -33q0 -25 -35 -45l-155 -87z" />
    <glyph glyph-name="Thorn" unicode="&#xde;" horiz-adv-x="590" 
d="M216 227h72q146 0 146 109q0 66 -37.5 87.5t-119.5 21.5h-61v-218zM216 559v-17h107q112 0 174.5 -50t62.5 -150t-71 -156t-188 -56h-85v-46l96 -3v-81h-280v78l33 3q29 3 29 28v470l-62 4v82h277v-75l-64 -3q-29 -2 -29 -28z" />
    <glyph glyph-name="germandbls" unicode="&#xdf;" horiz-adv-x="625" 
d="M90 112v398q0 203 240 203q109 0 162.5 -40.5t53.5 -104.5q0 -54 -46 -97q-20 -18 -39 -34q-46 -39 -46 -67q0 -32 63 -70q27 -15 53.5 -33.5t45 -49.5t18.5 -71q0 -76 -50.5 -117.5t-136 -41.5t-153.5 31v139l90 7v-48q0 -16 3 -23t19.5 -13.5t45 -6t46.5 17.5t18 45.5
t-18 48.5t-43 34.5t-50.5 30t-43.5 41t-18 59.5t20 64t44.5 49t44.5 44t20 49q0 67 -112 67t-112 -107v-516h-181v76l33 3q15 2 22 8.5t7 24.5z" />
    <glyph glyph-name="agrave" unicode="&#xe0;" horiz-adv-x="567" 
d="M482 483v-372q0 -16 5.5 -22t19.5 -7l32 -2v-80h-159v58l-3 1q-50 -72 -137 -72q-102 0 -151 65t-49 178q0 136 66 212t198 76q85 0 178 -35zM366 159v259q-28 13 -77 13q-67 0 -97 -54t-30 -143q0 -162 104 -162q44 0 72 26.5t28 60.5zM253 786l116 -192l-39 -33
l-128 124q-25 23 -25 43t29 36z" />
    <glyph glyph-name="aacute" unicode="&#xe1;" horiz-adv-x="567" 
d="M482 483v-372q0 -16 5.5 -22t19.5 -7l32 -2v-80h-159v58l-3 1q-50 -72 -137 -72q-102 0 -151 65t-49 178q0 136 66 212t198 76q85 0 178 -35zM366 159v259q-28 13 -77 13q-67 0 -97 -54t-30 -143q0 -162 104 -162q44 0 72 26.5t28 60.5zM214 594l116 192l47 -22
q29 -16 29 -36t-25 -43l-128 -124z" />
    <glyph glyph-name="acircumflex" unicode="&#xe2;" horiz-adv-x="567" 
d="M482 483v-372q0 -16 5.5 -22t19.5 -7l32 -2v-80h-159v58l-3 1q-50 -72 -137 -72q-102 0 -151 65t-49 178q0 136 66 212t198 76q85 0 178 -35zM366 159v259q-28 13 -77 13q-67 0 -97 -54t-30 -143q0 -162 104 -162q44 0 72 26.5t28 60.5zM174 562l-41 32l115 151
q20 26 43 26q25 0 46 -28l113 -148l-41 -34l-118 104z" />
    <glyph glyph-name="atilde" unicode="&#xe3;" horiz-adv-x="567" 
d="M482 483v-372q0 -16 5.5 -22t19.5 -7l32 -2v-80h-159v58l-3 1q-50 -72 -137 -72q-102 0 -151 65t-49 178q0 136 66 212t198 76q85 0 178 -35zM366 159v259q-28 13 -77 13q-67 0 -97 -54t-30 -143q0 -162 104 -162q44 0 72 26.5t28 60.5zM175 596l-48 35q36 79 102 79
q24 0 70 -14t67.5 -14t40.5 32l54 -29q-33 -87 -103 -87q-22 0 -66 13.5t-61.5 13.5t-28.5 -5.5t-27 -23.5z" />
    <glyph glyph-name="adieresis" unicode="&#xe4;" horiz-adv-x="567" 
d="M482 483v-372q0 -16 5.5 -22t19.5 -7l32 -2v-80h-159v58l-3 1q-50 -72 -137 -72q-102 0 -151 65t-49 178q0 136 66 212t198 76q85 0 178 -35zM366 159v259q-28 13 -77 13q-67 0 -97 -54t-30 -143q0 -162 104 -162q44 0 72 26.5t28 60.5zM340 599.5q-19 18.5 -19 47
t19.5 48t49.5 19.5t49.5 -19.5t19.5 -48t-19.5 -47t-50 -18.5t-49.5 18.5zM140 599.5q-19 18.5 -19 47t19.5 48t49.5 19.5t49.5 -19.5t19.5 -48t-19.5 -47t-50 -18.5t-49.5 18.5z" />
    <glyph glyph-name="aring" unicode="&#xe5;" horiz-adv-x="567" 
d="M482 483v-372q0 -16 5.5 -22t19.5 -7l32 -2v-80h-159v58l-3 1q-50 -72 -137 -72q-102 0 -151 65t-49 178q0 136 66 212t198 76q85 0 178 -35zM366 159v259q-28 13 -77 13q-67 0 -97 -54t-30 -143q0 -162 104 -162q44 0 72 26.5t28 60.5zM216.5 590.5q-24.5 26.5 -24.5 67
t26.5 66.5t69 26t67.5 -25.5t25 -65.5t-26 -67.5t-69.5 -27.5t-68 26.5zM287 698q-36 0 -36 -41.5t36 -41.5q17 0 26.5 12t9.5 30q0 41 -36 41z" />
    <glyph glyph-name="ae" unicode="&#xe6;" horiz-adv-x="765" 
d="M442 484q53 34 126 34t116.5 -36.5t43.5 -102.5q0 -179 -285 -181q3 -55 34 -87t90 -32t125 45l38 -81q-23 -19 -70 -37.5t-110 -18.5q-104 0 -158 54q-66 -54 -148 -54q-108 0 -156 67.5t-48 189.5t67 198t192 76q73 0 143 -34zM287 431q-63 0 -94 -53t-31 -136.5
t24.5 -126.5t82.5 -43q43 0 75 32q-26 55 -26 146t51 166q-37 15 -82 15zM618 375q0 27 -16 42.5t-43 15.5q-56 0 -86.5 -45t-33.5 -107q54 0 96.5 13.5t62.5 33.5t20 47z" />
    <glyph glyph-name="ccedilla" unicode="&#xe7;" horiz-adv-x="471" 
d="M186 125q32 -47 92.5 -47t119.5 43l43 -77q-63 -53 -157 -57l-12 -50q42 -3 67.5 -24t25.5 -64.5t-36.5 -67t-85.5 -23.5t-90 18l16 52q39 -13 67 -13q48 0 48 37.5t-88 37.5l31 99q-93 11 -143.5 77t-50.5 179q0 140 70.5 206.5t159 66.5t164.5 -41v-130l-92 -7v48
q0 27 -19.5 33.5t-40.5 6.5q-121 0 -121 -171q0 -85 32 -132z" />
    <glyph glyph-name="egrave" unicode="&#xe8;" horiz-adv-x="484" 
d="M284 518q75 0 119 -36.5t44 -102.5q0 -44 -19 -77.5t-47 -52.5t-68 -31q-67 -20 -151 -20q3 -53 33 -85.5t92 -32.5t124 44l38 -81q-20 -18 -67.5 -37t-108.5 -19q-122 0 -179 67.5t-57 185.5t65 198t182 80zM306 318.5q31 22.5 31 53.5q0 61 -60 61q-56 0 -86 -44.5
t-33 -106.5q44 1 80.5 7.5t67.5 29zM220 786l116 -192l-39 -33l-128 124q-25 23 -25 43t29 36z" />
    <glyph glyph-name="eacute" unicode="&#xe9;" horiz-adv-x="484" 
d="M284 518q75 0 119 -36.5t44 -102.5q0 -44 -19 -77.5t-47 -52.5t-68 -31q-67 -20 -151 -20q3 -53 33 -85.5t92 -32.5t124 44l38 -81q-20 -18 -67.5 -37t-108.5 -19q-122 0 -179 67.5t-57 185.5t65 198t182 80zM306 318.5q31 22.5 31 53.5q0 61 -60 61q-56 0 -86 -44.5
t-33 -106.5q44 1 80.5 7.5t67.5 29zM173 594l116 192l47 -22q29 -16 29 -36t-25 -43l-128 -124z" />
    <glyph glyph-name="ecircumflex" unicode="&#xea;" horiz-adv-x="484" 
d="M284 518q75 0 119 -36.5t44 -102.5q0 -44 -19 -77.5t-47 -52.5t-68 -31q-67 -20 -151 -20q3 -53 33 -85.5t92 -32.5t124 44l38 -81q-20 -18 -67.5 -37t-108.5 -19q-122 0 -179 67.5t-57 185.5t65 198t182 80zM306 318.5q31 22.5 31 53.5q0 61 -60 61q-56 0 -86 -44.5
t-33 -106.5q44 1 80.5 7.5t67.5 29zM145 562l-41 32l115 151q20 26 43 26q25 0 46 -28l113 -148l-41 -34l-118 104z" />
    <glyph glyph-name="edieresis" unicode="&#xeb;" horiz-adv-x="484" 
d="M284 518q75 0 119 -36.5t44 -102.5q0 -44 -19 -77.5t-47 -52.5q-75 -51 -219 -51q3 -53 33 -85.5t92 -32.5t124 44l38 -81q-20 -18 -67.5 -37t-108.5 -19q-122 0 -179 67.5t-57 185.5t65 198t182 80zM277 433q-56 0 -86 -44.5t-33 -106.5q44 1 80.5 7.5t67.5 29t31 53.5
q0 61 -60 61zM310 599.5q-19 18.5 -19 47t19.5 48t49.5 19.5t49.5 -19.5t19.5 -48t-19.5 -47t-50 -18.5t-49.5 18.5zM110 599.5q-19 18.5 -19 47t19.5 48t49.5 19.5t49.5 -19.5t19.5 -48t-19.5 -47t-50 -18.5t-49.5 18.5z" />
    <glyph glyph-name="igrave" unicode="&#xec;" horiz-adv-x="296" 
d="M214 503v-420l57 -3v-80h-238v76l33 3q29 3 29 32v278q0 17 -5.5 23t-19.5 6l-35 2v83h179zM96 786l116 -192l-39 -33l-128 124q-25 23 -25 43t29 36z" />
    <glyph glyph-name="iacute" unicode="&#xed;" horiz-adv-x="296" 
d="M214 503v-420l57 -3v-80h-238v76l33 3q29 3 29 32v278q0 17 -5.5 23t-19.5 6l-35 2v83h179zM82 594l116 192l47 -22q29 -16 29 -36t-25 -43l-128 -124z" />
    <glyph glyph-name="icircumflex" unicode="&#xee;" horiz-adv-x="296" 
d="M214 503v-420l57 -3v-80h-238v76l33 3q29 3 29 32v278q0 17 -5.5 23t-19.5 6l-35 2v83h179zM8 562l-41 32l115 151q20 26 43 26q25 0 46 -28l113 -148l-41 -34l-118 104z" />
    <glyph glyph-name="idieresis" unicode="&#xef;" horiz-adv-x="296" 
d="M214 503v-420l57 -3v-80h-238v76l33 3q29 3 29 32v278q0 17 -5.5 23t-19.5 6l-35 2v83h179zM175 599.5q-19 18.5 -19 47t19.5 48t49.5 19.5t49.5 -19.5t19.5 -48t-19.5 -47t-50 -18.5t-49.5 18.5zM-25 599.5q-19 18.5 -19 47t19.5 48t49.5 19.5t49.5 -19.5t19.5 -48
t-19.5 -47t-50 -18.5t-49.5 18.5z" />
    <glyph glyph-name="eth" unicode="&#xf0;" horiz-adv-x="512" 
d="M202 477l-46 65l66 45q-44 27 -100 37l24 93q100 -13 171 -65l84 57l45 -65l-67 -47q99 -123 99 -321q0 -131 -57 -210.5t-172 -79.5t-167 61t-52 163.5t54.5 168.5t148.5 66q65 0 114 -32q-19 70 -62 121zM153 213q0 -63 24.5 -97.5t74.5 -34.5t76.5 49.5t26.5 130.5
q0 41 -1 55q-45 37 -104 37q-97 0 -97 -140z" />
    <glyph glyph-name="ntilde" unicode="&#xf1;" horiz-adv-x="600" 
d="M27 423v80h169v-65q26 37 69 58.5t93 21.5q76 0 117.5 -43.5t41.5 -130.5v-261l57 -3v-80h-238v76l33 3q15 2 22 8.5t7 24.5v206q0 55 -17 81.5t-64.5 26.5t-75.5 -30t-28 -71v-242l57 -3v-80h-238v76l33 3q15 2 22 8.5t7 24.5v277q0 30 -25 31zM177 596l-48 35
q36 79 102 79q24 0 70 -14t67.5 -14t40.5 32l54 -29q-33 -87 -103 -87q-22 0 -66 13.5t-61.5 13.5t-28.5 -5.5t-27 -23.5z" />
    <glyph glyph-name="ograve" unicode="&#xf2;" horiz-adv-x="528" 
d="M263 73q109 0 109 176q0 89 -24.5 135t-82 46t-84.5 -44t-27 -120q0 -141 52 -177q23 -16 57 -16zM33 252q0 74 22 128.5t59 83.5q71 54 157 54q60 0 101.5 -19.5t65 -45t40 -74t16.5 -114.5q0 -138 -67 -209t-171.5 -71t-163.5 67.5t-59 199.5zM228 786l116 -192
l-39 -33l-128 124q-25 23 -25 43t29 36z" />
    <glyph glyph-name="oacute" unicode="&#xf3;" horiz-adv-x="528" 
d="M263 73q109 0 109 176q0 89 -24.5 135t-82 46t-84.5 -44t-27 -120q0 -141 52 -177q23 -16 57 -16zM33 252q0 74 22 128.5t59 83.5q71 54 157 54q60 0 101.5 -19.5t65 -45t40 -74t16.5 -114.5q0 -138 -67 -209t-171.5 -71t-163.5 67.5t-59 199.5zM186 594l116 192l47 -22
q29 -16 29 -36t-25 -43l-128 -124z" />
    <glyph glyph-name="ocircumflex" unicode="&#xf4;" horiz-adv-x="528" 
d="M263 73q109 0 109 176q0 89 -24.5 135t-82 46t-84.5 -44t-27 -120q0 -141 52 -177q23 -16 57 -16zM33 252q0 74 22 128.5t59 83.5q71 54 157 54q60 0 101.5 -19.5t65 -45t40 -74t16.5 -114.5q0 -138 -67 -209t-171.5 -71t-163.5 67.5t-59 199.5zM144 562l-41 32l115 151
q20 26 43 26q25 0 46 -28l113 -148l-41 -34l-118 104z" />
    <glyph glyph-name="otilde" unicode="&#xf5;" horiz-adv-x="528" 
d="M263 73q109 0 109 176q0 89 -24.5 135t-82 46t-84.5 -44t-27 -120q0 -141 52 -177q23 -16 57 -16zM33 252q0 74 22 128.5t59 83.5q71 54 157 54q60 0 101.5 -19.5t65 -45t40 -74t16.5 -114.5q0 -138 -67 -209t-171.5 -71t-163.5 67.5t-59 199.5zM147 596l-48 35
q36 79 102 79q24 0 70 -14t67.5 -14t40.5 32l54 -29q-33 -87 -103 -87q-22 0 -66 13.5t-61.5 13.5t-28.5 -5.5t-27 -23.5z" />
    <glyph glyph-name="odieresis" unicode="&#xf6;" horiz-adv-x="528" 
d="M263 73q109 0 109 176q0 89 -24.5 135t-82 46t-84.5 -44t-27 -120q0 -141 52 -177q23 -16 57 -16zM33 252q0 74 22 128.5t59 83.5q71 54 157 54q60 0 101.5 -19.5t65 -45t40 -74t16.5 -114.5q0 -138 -67 -209t-171.5 -71t-163.5 67.5t-59 199.5zM311 599.5
q-19 18.5 -19 47t19.5 48t49.5 19.5t49.5 -19.5t19.5 -48t-19.5 -47t-50 -18.5t-49.5 18.5zM111 599.5q-19 18.5 -19 47t19.5 48t49.5 19.5t49.5 -19.5t19.5 -48t-19.5 -47t-50 -18.5t-49.5 18.5z" />
    <glyph glyph-name="divide" unicode="&#xf7;" horiz-adv-x="535" 
d="M221 78.5q-17 18.5 -17 48t17.5 49t47 19.5t47.5 -18t18 -48t-18 -49.5t-48 -19.5t-47 18.5zM221 455.5q-17 18.5 -17 48t17.5 49t47 19.5t47.5 -18t18 -48t-18 -49.5t-48 -19.5t-47 18.5zM470 362v-96h-405v96h405z" />
    <glyph glyph-name="oslash" unicode="&#xf8;" horiz-adv-x="528" 
d="M137 -84l-72 36l42 86q-72 69 -72 214q0 74 22 128.5t59 83.5q71 54 157 54q44 0 79 -11l38 76l73 -35l-40 -80q73 -64 73 -202.5t-67 -209.5t-172 -71q-44 0 -80 12zM265 73q109 0 109 176q0 64 -13 104l-139 -272q19 -8 43 -8zM267 430q-57 0 -84 -44t-27 -118.5
t12 -115.5l138 271q-15 7 -39 7z" />
    <glyph glyph-name="ugrave" unicode="&#xf9;" horiz-adv-x="591" 
d="M563 79v-79h-162v65q-55 -78 -162 -78q-155 0 -155 173v231q0 27 -25 28l-32 2v82h176v-317q0 -53 15 -80t62 -27t75.5 29t28.5 70v211q0 16 -5.5 22.5t-19.5 7.5l-32 2v82h176v-392q0 -16 5 -21.5t20 -7.5zM234 786l116 -192l-39 -33l-128 124q-25 23 -25 43t29 36z" />
    <glyph glyph-name="uacute" unicode="&#xfa;" horiz-adv-x="591" 
d="M563 79v-79h-162v65q-55 -78 -162 -78q-155 0 -155 173v231q0 27 -25 28l-32 2v82h176v-317q0 -53 15 -80t62 -27t75.5 29t28.5 70v211q0 16 -5.5 22.5t-19.5 7.5l-32 2v82h176v-392q0 -16 5 -21.5t20 -7.5zM204 594l116 192l47 -22q29 -16 29 -36t-25 -43l-128 -124z
" />
    <glyph glyph-name="ucircumflex" unicode="&#xfb;" horiz-adv-x="591" 
d="M563 79v-79h-162v65q-55 -78 -162 -78q-155 0 -155 173v231q0 27 -25 28l-32 2v82h176v-317q0 -53 15 -80t62 -27t75.5 29t28.5 70v211q0 16 -5.5 22.5t-19.5 7.5l-32 2v82h176v-392q0 -16 5 -21.5t20 -7.5zM157 562l-41 32l115 151q20 26 43 26q25 0 46 -28l113 -148
l-41 -34l-118 104z" />
    <glyph glyph-name="udieresis" unicode="&#xfc;" horiz-adv-x="591" 
d="M563 79v-79h-162v65q-55 -78 -162 -78q-155 0 -155 173v231q0 27 -25 28l-32 2v82h176v-317q0 -53 15 -80t62 -27t75.5 29t28.5 70v211q0 16 -5.5 22.5t-19.5 7.5l-32 2v82h176v-392q0 -16 5 -21.5t20 -7.5zM327 599.5q-19 18.5 -19 47t19.5 48t49.5 19.5t49.5 -19.5
t19.5 -48t-19.5 -47t-50 -18.5t-49.5 18.5zM127 599.5q-19 18.5 -19 47t19.5 48t49.5 19.5t49.5 -19.5t19.5 -48t-19.5 -47t-50 -18.5t-49.5 18.5z" />
    <glyph glyph-name="yacute" unicode="&#xfd;" horiz-adv-x="573" 
d="M401 19v76q-55 -78 -162 -78q-155 0 -155 173v201q0 27 -25 28l-32 2v82h176v-287q0 -53 15 -80t62 -27t75.5 29t28.5 70v181q0 17 -5.5 23.5t-19.5 6.5l-32 2v82h176v-484q0 -121 -58.5 -177t-177 -56t-184.5 33v139l95 8v-48q0 -27 25 -36.5t69 -9.5q129 0 129 147z
M205 594l116 192l47 -22q29 -16 29 -36t-25 -43l-128 -124z" />
    <glyph glyph-name="thorn" unicode="&#xfe;" horiz-adv-x="568" 
d="M406 260q0 169 -112 169q-36 0 -63 -21t-27 -54v-249q38 -25 93 -25t82 49.5t27 130.5zM529 276q0 -138 -57.5 -214.5t-160.5 -76.5q-60 0 -107 29v-138l81 -4v-79h-258v76l33 3q15 2 22 8.5t7 24.5v699q0 23 -25 24l-35 2v83h175v-237q45 42 121 42q93 0 148.5 -64.5
t55.5 -177.5z" />
    <glyph glyph-name="ydieresis" unicode="&#xff;" horiz-adv-x="573" 
d="M401 19v76q-55 -78 -162 -78q-155 0 -155 173v201q0 27 -25 28l-32 2v82h176v-287q0 -53 15 -80t62 -27t75.5 29t28.5 70v181q0 17 -5.5 23.5t-19.5 6.5l-32 2v82h176v-484q0 -121 -58.5 -177t-177 -56t-184.5 33v139l95 8v-48q0 -27 25 -36.5t69 -9.5q129 0 129 147z
M320 599.5q-19 18.5 -19 47t19.5 48t49.5 19.5t49.5 -19.5t19.5 -48t-19.5 -47t-50 -18.5t-49.5 18.5zM120 599.5q-19 18.5 -19 47t19.5 48t49.5 19.5t49.5 -19.5t19.5 -48t-19.5 -47t-50 -18.5t-49.5 18.5z" />
    <glyph glyph-name="Amacron" unicode="&#x100;" horiz-adv-x="662" 
d="M68 112l161 466l-63 6v81h229l204 -577h1l57 -3v-85h-258v81l38 3q17 2 23 8t1 22l-21 62h-234l-30 -88l60 -3v-85h-231v81l33 3q21 2 30 28zM323 553l-93 -285h186l-90 285h-3zM159 734v87h287v-87h-287z" />
    <glyph glyph-name="amacron" unicode="&#x101;" horiz-adv-x="567" 
d="M482 483v-372q0 -16 5.5 -22t19.5 -7l32 -2v-80h-159v58l-3 1q-50 -72 -137 -72q-102 0 -151 65t-49 178q0 136 66 212t198 76q85 0 178 -35zM366 159v259q-28 13 -77 13q-67 0 -97 -54t-30 -143q0 -162 104 -162q44 0 72 26.5t28 60.5zM149 610v84h287v-84h-287z" />
    <glyph glyph-name="Abreve" unicode="&#x102;" horiz-adv-x="662" 
d="M68 112l161 466l-63 6v81h229l204 -577h1l57 -3v-85h-258v81l38 3q17 2 23 8t1 22l-21 62h-234l-30 -88l60 -3v-85h-231v81l33 3q21 2 30 28zM323 553l-93 -285h186l-90 285h-3zM406 874l66 -27q-42 -127 -169.5 -127t-162.5 126l67 28q31 -78 100 -78q37 0 59.5 18.5
t39.5 59.5z" />
    <glyph glyph-name="abreve" unicode="&#x103;" horiz-adv-x="567" 
d="M482 483v-372q0 -16 5.5 -22t19.5 -7l32 -2v-80h-159v58l-3 1q-50 -72 -137 -72q-102 0 -151 65t-49 178q0 136 66 212t198 76q85 0 178 -35zM366 159v259q-28 13 -77 13q-67 0 -97 -54t-30 -143q0 -162 104 -162q44 0 72 26.5t28 60.5zM384 721l65 -15
q-16 -68 -56.5 -106t-108 -38t-107.5 41.5t-49 102.5l68 16q28 -84 94 -84q31 0 53.5 18.5t40.5 64.5z" />
    <glyph glyph-name="Aogonek" unicode="&#x104;" horiz-adv-x="662" 
d="M68 112l161 466l-63 6v81h229l204 -577h1l57 -3v-85h-45q-99 -43 -99 -97q0 -38 41 -38q22 0 47 11l22 -66q-50 -24 -104.5 -24t-80 27.5t-25.5 68.5q0 69 88 118h-102v81l38 3q17 2 23 8t1 22l-21 62h-234l-30 -88l60 -3v-85h-231v81l33 3q21 2 30 28zM323 553l-93 -285
h186l-90 285h-3z" />
    <glyph glyph-name="aogonek" unicode="&#x105;" horiz-adv-x="567" 
d="M482 483v-372q0 -16 5.5 -22t19.5 -7l32 -2v-80q-109 -42 -109 -95q0 -40 41 -40q22 0 47 11l22 -66q-50 -24 -104.5 -24t-80 27.5t-25.5 68.5q0 75 95 111v7h-45v58l-3 1q-50 -72 -137 -72q-102 0 -151 65t-49 178q0 136 66 212t198 76q85 0 178 -35zM366 159v259
q-28 13 -77 13q-67 0 -97 -54t-30 -143q0 -162 104 -162q44 0 72 26.5t28 60.5z" />
    <glyph glyph-name="Cacute" unicode="&#x106;" horiz-adv-x="602" 
d="M436 559q-11 19 -82 19q-93 0 -141 -63t-48 -182q0 -247 185 -247h26.5t44.5 6.5t25 13.5t4 22v80l102 -7v-173q-78 -41 -198 -41q-153 0 -233.5 86t-80.5 256q0 94 27 164t73 109q90 75 214 75q100 0 188 -41v-170l-102 -7v78q0 15 -4 22zM238 750l162 157l40 -33
q18 -17 18 -33q0 -25 -35 -45l-155 -87z" />
    <glyph glyph-name="cacute" unicode="&#x107;" horiz-adv-x="471" 
d="M186 125q32 -47 92.5 -47t119.5 43l43 -77q-71 -58 -178 -58t-168.5 67.5t-61.5 199.5t70.5 198.5t159 66.5t164.5 -41v-130l-92 -7v48q0 27 -19.5 33.5t-40.5 6.5q-121 0 -121 -171q0 -85 32 -132zM183 594l116 192l47 -22q29 -16 29 -36t-25 -43l-128 -124z" />
    <glyph glyph-name="Ccircumflex" unicode="&#x108;" horiz-adv-x="602" 
d="M436 559q-11 19 -82 19q-93 0 -141 -63t-48 -182q0 -247 185 -247h26.5t44.5 6.5t25 13.5t4 22v80l102 -7v-173q-78 -41 -198 -41q-153 0 -233.5 86t-80.5 256q0 94 27 164t73 109q90 75 214 75q100 0 188 -41v-170l-102 -7v78q0 15 -4 22zM224 708l-41 34l118 128
q21 23 42 23l40 -21l120 -129l-41 -35l-120 86z" />
    <glyph glyph-name="ccircumflex" unicode="&#x109;" horiz-adv-x="471" 
d="M186 125q32 -47 92.5 -47t119.5 43l43 -77q-71 -58 -178 -58t-168.5 67.5t-61.5 199.5t70.5 198.5t159 66.5t164.5 -41v-130l-92 -7v48q0 27 -19.5 33.5t-40.5 6.5q-121 0 -121 -171q0 -85 32 -132zM144 563l-41 32l115 151q20 26 43 26q25 0 46 -28l113 -148l-41 -34
l-118 104z" />
    <glyph glyph-name="Cdotaccent" unicode="&#x10a;" horiz-adv-x="602" 
d="M436 559q-11 19 -82 19q-93 0 -141 -63t-48 -182q0 -247 185 -247h26.5t44.5 6.5t25 13.5t4 22v80l102 -7v-173q-78 -41 -198 -41q-153 0 -233.5 86t-80.5 256q0 94 27 164t73 109q90 75 214 75q100 0 188 -41v-170l-102 -7v78q0 15 -4 22zM295 745.5q-19 18.5 -19 47
t19.5 48t49.5 19.5t49.5 -19.5t19.5 -48t-19.5 -47t-50 -18.5t-49.5 18.5z" />
    <glyph glyph-name="cdotaccent" unicode="&#x10b;" horiz-adv-x="471" 
d="M186 125q32 -47 92.5 -47t119.5 43l43 -77q-71 -58 -178 -58t-168.5 67.5t-61.5 199.5t70.5 198.5t159 66.5t164.5 -41v-130l-92 -7v48q0 27 -19.5 33.5t-40.5 6.5q-121 0 -121 -171q0 -85 32 -132zM216 599.5q-19 18.5 -19 47t19.5 48t49.5 19.5t49.5 -19.5t19.5 -48
t-19.5 -47t-50 -18.5t-49.5 18.5z" />
    <glyph glyph-name="Ccaron" unicode="&#x10c;" horiz-adv-x="602" 
d="M436 559q-11 19 -82 19q-93 0 -141 -63t-48 -182q0 -247 185 -247h26.5t44.5 6.5t25 13.5t4 22v80l102 -7v-173q-78 -41 -198 -41q-153 0 -233.5 86t-80.5 256q0 94 27 164t73 109q90 75 214 75q100 0 188 -41v-170l-102 -7v78q0 15 -4 22zM458 893l41 -34l-118 -128
q-21 -23 -42 -23l-40 21l-120 129l41 35l120 -86z" />
    <glyph glyph-name="ccaron" unicode="&#x10d;" horiz-adv-x="471" 
d="M186 125q32 -47 92.5 -47t119.5 43l43 -77q-71 -58 -178 -58t-168.5 67.5t-61.5 199.5t70.5 198.5t159 66.5t164.5 -41v-130l-92 -7v48q0 27 -19.5 33.5t-40.5 6.5q-121 0 -121 -171q0 -85 32 -132zM383 771l41 -32l-115 -146q-20 -26 -43 -26q-25 0 -46 28l-113 143
l41 34l118 -104z" />
    <glyph glyph-name="Dcaron" unicode="&#x10e;" horiz-adv-x="665" 
d="M34 0v81l33 3q29 3 29 28v465l-57 3v85h274q147 0 229.5 -78t82.5 -231q0 -95 -25 -165.5t-68 -110.5q-86 -80 -214 -80h-284zM218 568v-472h102q86 0 134 62t48 180q0 230 -195 230h-89zM418 893l41 -34l-118 -128q-21 -23 -42 -23l-40 21l-120 129l41 35l120 -86z" />
    <glyph glyph-name="dcaron" unicode="&#x10f;" horiz-adv-x="650" 
d="M284 518q43 0 82 -12v101q0 22 -26 24l-43 3v79h186v-608q1 -23 25 -23l35 -2v-80h-162v59l-3 1q-45 -73 -136 -73q-114 0 -160 76q-42 69 -42 169q0 130 64.5 208t179.5 78zM366 156v259q-36 16 -76 16q-66 0 -96.5 -53t-30.5 -135q0 -168 108 -168q41 0 68 23.5
t27 57.5zM609 718q40 0 40 -40q0 -12 -4 -26l-46 -159l-48 9v211l50 5h8z" />
    <glyph glyph-name="Dcroat" unicode="&#x110;" horiz-adv-x="679" 
d="M48 0v81l33 3q29 3 29 28v178h-74v90h74v197l-57 3v85h274q147 0 229.5 -78t82.5 -231q0 -95 -25 -165.5t-68 -110.5q-86 -80 -214 -80h-284zM232 568v-188h169v-90h-169v-194h102q86 0 134 62t48 180q0 230 -195 230h-89z" />
    <glyph glyph-name="dcroat" unicode="&#x111;" horiz-adv-x="568" 
d="M543 536h-60v-431q1 -23 25 -23l35 -2v-80h-162v59l-3 1q-45 -73 -136 -73q-114 0 -160 76q-42 69 -42 178.5t64.5 181.5t179.5 72q43 0 82 -12v53h-170v72h170v16q0 22 -26 24l-43 3v62h186v-105h60v-72zM366 156v236q-36 16 -76 16q-67 0 -97 -46.5t-30 -118.5
q0 -168 108 -168q41 0 68 23.5t27 57.5z" />
    <glyph glyph-name="Emacron" unicode="&#x112;" horiz-adv-x="549" 
d="M509 0h-475v81l33 3q29 3 29 28v465l-57 3v85h458v-166l-102 -7v40q0 17 -5 24t-24 7h-148v-171h231v-102h-231v-187h161q18 0 23 7.5t5 24.5v50l102 -7v-178zM128 734v87h287v-87h-287z" />
    <glyph glyph-name="emacron" unicode="&#x113;" horiz-adv-x="484" 
d="M284 518q75 0 119 -36.5t44 -102.5q0 -44 -19 -77.5t-47 -52.5t-68 -31q-67 -20 -151 -20q3 -53 33 -85.5t92 -32.5t124 44l38 -81q-20 -18 -67.5 -37t-108.5 -19q-122 0 -179 67.5t-57 185.5t65 198t182 80zM306 318.5q31 22.5 31 53.5q0 61 -60 61q-56 0 -86 -44.5
t-33 -106.5q44 1 80.5 7.5t67.5 29zM122 610v84h287v-84h-287z" />
    <glyph glyph-name="Ebreve" unicode="&#x114;" horiz-adv-x="549" 
d="M509 0h-475v81l33 3q29 3 29 28v465l-57 3v85h458v-166l-102 -7v40q0 17 -5 24t-24 7h-148v-171h231v-102h-231v-187h161q18 0 23 7.5t5 24.5v50l102 -7v-178zM376 874l66 -27q-42 -127 -169.5 -127t-162.5 126l67 28q31 -78 100 -78q37 0 59.5 18.5t39.5 59.5z" />
    <glyph glyph-name="ebreve" unicode="&#x115;" horiz-adv-x="484" 
d="M284 518q75 0 119 -36.5t44 -102.5q0 -44 -19 -77.5t-47 -52.5t-68 -31q-67 -20 -151 -20q3 -53 33 -85.5t92 -32.5t124 44l38 -81q-20 -18 -67.5 -37t-108.5 -19q-122 0 -179 67.5t-57 185.5t65 198t182 80zM306 318.5q31 22.5 31 53.5q0 61 -60 61q-56 0 -86 -44.5
t-33 -106.5q44 1 80.5 7.5t67.5 29zM357 721l65 -15q-16 -68 -56.5 -106t-108 -38t-107.5 41.5t-49 102.5l68 16q28 -84 94 -84q31 0 53.5 18.5t40.5 64.5z" />
    <glyph glyph-name="Edotaccent" unicode="&#x116;" horiz-adv-x="549" 
d="M509 0h-475v81l33 3q29 3 29 28v465l-57 3v85h458v-166l-102 -7v40q0 17 -5 24t-24 7h-148v-171h231v-102h-231v-187h161q18 0 23 7.5t5 24.5v50l102 -7v-178zM227 745.5q-19 18.5 -19 47t19.5 48t49.5 19.5t49.5 -19.5t19.5 -48t-19.5 -47t-50 -18.5t-49.5 18.5z" />
    <glyph glyph-name="edotaccent" unicode="&#x117;" horiz-adv-x="484" 
d="M284 518q75 0 119 -36.5t44 -102.5q0 -44 -19 -77.5t-47 -52.5t-68 -31q-67 -20 -151 -20q3 -53 33 -85.5t92 -32.5t124 44l38 -81q-20 -18 -67.5 -37t-108.5 -19q-122 0 -179 67.5t-57 185.5t65 198t182 80zM306 318.5q31 22.5 31 53.5q0 61 -60 61q-56 0 -86 -44.5
t-33 -106.5q44 1 80.5 7.5t67.5 29zM217 599.5q-19 18.5 -19 47t19.5 48t49.5 19.5t49.5 -19.5t19.5 -48t-19.5 -47t-50 -18.5t-49.5 18.5z" />
    <glyph glyph-name="Eogonek" unicode="&#x118;" horiz-adv-x="549" 
d="M509 0q-113 -39 -113 -97q0 -38 41 -38q22 0 47 11l22 -66q-50 -24 -104.5 -24t-80 27.5t-25.5 68.5q0 69 88 118h-350v81l33 3q29 3 29 28v465l-57 3v85h458v-166l-102 -7v40q0 17 -5 24t-24 7h-148v-171h231v-102h-231v-187h161q18 0 23 7.5t5 24.5v50l102 -7v-178z
" />
    <glyph glyph-name="eogonek" unicode="&#x119;" horiz-adv-x="484" 
d="M449 43q-14 -12 -60 -36t-72.5 -49t-26.5 -55q0 -38 41 -38q22 0 47 11l22 -66q-50 -24 -104.5 -24t-80 27.5t-25.5 68.5q0 62 67 105q-114 5 -167 72t-53 183t65 196t182 80q75 0 119 -36.5t44 -102.5q0 -44 -19 -77.5t-47 -52.5t-68 -31q-67 -20 -151 -20
q3 -53 33 -85.5t92 -32.5t124 44zM306 318.5q31 22.5 31 53.5q0 61 -60 61q-56 0 -86 -44.5t-33 -106.5q44 1 80.5 7.5t67.5 29z" />
    <glyph glyph-name="Ecaron" unicode="&#x11a;" horiz-adv-x="549" 
d="M509 0h-475v81l33 3q29 3 29 28v465l-57 3v85h458v-166l-102 -7v40q0 17 -5 24t-24 7h-148v-171h231v-102h-231v-187h161q18 0 23 7.5t5 24.5v50l102 -7v-178zM402 893l41 -34l-118 -128q-21 -23 -42 -23l-40 21l-120 129l41 35l120 -86z" />
    <glyph glyph-name="ecaron" unicode="&#x11b;" horiz-adv-x="484" 
d="M284 518q75 0 119 -36.5t44 -102.5q0 -44 -19 -77.5t-47 -52.5t-68 -31q-67 -20 -151 -20q3 -53 33 -85.5t92 -32.5t124 44l38 -81q-20 -18 -67.5 -37t-108.5 -19q-122 0 -179 67.5t-57 185.5t65 198t182 80zM306 318.5q31 22.5 31 53.5q0 61 -60 61q-56 0 -86 -44.5
t-33 -106.5q44 1 80.5 7.5t67.5 29zM381 771l41 -32l-115 -146q-20 -26 -43 -26q-25 0 -46 28l-113 143l41 34l118 -104z" />
    <glyph glyph-name="Gcircumflex" unicode="&#x11c;" horiz-adv-x="641" 
d="M564 233v-181q-93 -64 -231 -64t-215.5 86.5t-77.5 256.5q0 75 19.5 135t51 99t73.5 65q80 47 181.5 47t189.5 -41v-170l-102 -7v78q0 15 -4 22q-11 19 -91 19q-193 0 -193 -239q0 -252 174 -252q69 0 106 24v149h-1l-77 3v85h249v-80l-23 -2q-16 -2 -22.5 -8.5
t-6.5 -24.5zM229 708l-41 34l118 128q21 23 42 23l40 -21l120 -129l-41 -35l-120 86z" />
    <glyph glyph-name="gcircumflex" unicode="&#x11d;" horiz-adv-x="544" 
d="M414 -162q-55 -52 -172 -52t-183 33v139l95 8v-48q0 -27 25 -36.5t69 -9.5q64 0 90 38.5t26 108.5v55q-48 -56 -133 -56q-52 0 -91.5 20t-61.5 54q-43 68 -43 160q0 131 71 198.5t189 67.5q98 0 185 -37v-371q0 -85 -2 -109q-9 -111 -64 -163zM364 204v215q-35 12 -80 12
q-61 0 -93.5 -45t-32.5 -122q0 -158 104 -158q43 0 72.5 26.5t29.5 71.5zM160 562l-41 32l115 151q20 26 43 26q25 0 46 -28l113 -148l-41 -34l-118 104z" />
    <glyph glyph-name="Gbreve" unicode="&#x11e;" horiz-adv-x="641" 
d="M564 233v-181q-93 -64 -231 -64t-215.5 86.5t-77.5 256.5q0 75 19.5 135t51 99t73.5 65q80 47 181.5 47t189.5 -41v-170l-102 -7v78q0 15 -4 22q-11 19 -91 19q-193 0 -193 -239q0 -252 174 -252q69 0 106 24v149h-1l-77 3v85h249v-80l-23 -2q-16 -2 -22.5 -8.5
t-6.5 -24.5zM440 874l66 -27q-42 -127 -169.5 -127t-162.5 126l67 28q31 -78 100 -78q37 0 59.5 18.5t39.5 59.5z" />
    <glyph glyph-name="gbreve" unicode="&#x11f;" horiz-adv-x="544" 
d="M414 -162q-55 -52 -172 -52t-183 33v139l95 8v-48q0 -27 25 -36.5t69 -9.5q64 0 90 38.5t26 108.5v55q-48 -56 -133 -56q-52 0 -91.5 20t-61.5 54q-43 68 -43 160q0 131 71 198.5t189 67.5q98 0 185 -37v-371q0 -85 -2 -109q-9 -111 -64 -163zM364 204v215q-35 12 -80 12
q-61 0 -93.5 -45t-32.5 -122q0 -158 104 -158q43 0 72.5 26.5t29.5 71.5zM376 721l65 -15q-16 -68 -56.5 -106t-108 -38t-107.5 41.5t-49 102.5l68 16q28 -84 94 -84q31 0 53.5 18.5t40.5 64.5z" />
    <glyph glyph-name="Gdotaccent" unicode="&#x120;" horiz-adv-x="641" 
d="M564 233v-181q-93 -64 -231 -64t-215.5 86.5t-77.5 256.5q0 75 19.5 135t51 99t73.5 65q80 47 181.5 47t189.5 -41v-170l-102 -7v78q0 15 -4 22q-11 19 -91 19q-193 0 -193 -239q0 -252 174 -252q69 0 106 24v149h-1l-77 3v85h249v-80l-23 -2q-16 -2 -22.5 -8.5
t-6.5 -24.5zM303 745.5q-19 18.5 -19 47t19.5 48t49.5 19.5t49.5 -19.5t19.5 -48t-19.5 -47t-50 -18.5t-49.5 18.5z" />
    <glyph glyph-name="gdotaccent" unicode="&#x121;" horiz-adv-x="544" 
d="M414 -162q-55 -52 -172 -52t-183 33v139l95 8v-48q0 -27 25 -36.5t69 -9.5q64 0 90 38.5t26 108.5v55q-48 -56 -133 -56q-52 0 -91.5 20t-61.5 54q-43 68 -43 160q0 131 71 198.5t189 67.5q98 0 185 -37v-371q0 -85 -2 -109q-9 -111 -64 -163zM364 204v215q-35 12 -80 12
q-61 0 -93.5 -45t-32.5 -122q0 -158 104 -158q43 0 72.5 26.5t29.5 71.5zM230 599.5q-19 18.5 -19 47t19.5 48t49.5 19.5t49.5 -19.5t19.5 -48t-19.5 -47t-50 -18.5t-49.5 18.5z" />
    <glyph glyph-name="Gcommaaccent" unicode="&#x122;" horiz-adv-x="641" 
d="M564 233v-181q-93 -64 -231 -64t-215.5 86.5t-77.5 256.5q0 75 19.5 135t51 99t73.5 65q80 47 181.5 47t189.5 -41v-170l-102 -7v78q0 15 -4 22q-11 19 -91 19q-193 0 -193 -239q0 -252 174 -252q69 0 106 24v149h-1l-77 3v85h249v-80l-23 -2q-16 -2 -22.5 -8.5
t-6.5 -24.5zM312 -61l49 -10q32 -6 37 -29q1 -4 1 -15.5t-14 -30.5l-86 -135l-46 22z" />
    <glyph glyph-name="gcommaaccent" unicode="&#x123;" horiz-adv-x="544" 
d="M414 -162q-55 -52 -172 -52t-183 33v139l95 8v-48q0 -27 25 -36.5t69 -9.5q64 0 90 38.5t26 108.5v55q-48 -56 -133 -56q-52 0 -91.5 20t-61.5 54q-43 68 -43 160q0 131 71 198.5t189 67.5q98 0 185 -37v-371q0 -85 -2 -109q-9 -111 -64 -163zM364 204v215q-35 12 -80 12
q-61 0 -93.5 -45t-32.5 -122q0 -158 104 -158q43 0 72.5 26.5t29.5 71.5zM372 772l-59 -198l-49 10q-38 7 -38 38q0 18 14 37l86 135z" />
    <glyph glyph-name="Hcircumflex" unicode="&#x124;" horiz-adv-x="712" 
d="M499 117v173h-283v-202l58 -3v-85h-242v81l33 3q29 3 29 28v465l-57 3v85h242v-81l-33 -3q-16 -2 -23 -8.5t-7 -24.5v-155h283v184l-57 3v85h242v-81l-33 -3q-29 -3 -29 -32v-461l57 -3v-85h-242v81l33 3q15 2 22 8.5t7 24.5zM236 708l-41 34l118 128q21 23 42 23l40 -21
l120 -129l-41 -35l-120 86z" />
    <glyph glyph-name="hcircumflex" unicode="&#x125;" horiz-adv-x="600" 
d="M94 112v487q0 16 -5.5 22t-19.5 7l-35 2v83h178v-269q52 74 146 74q76 0 117.5 -43.5t41.5 -130.5v-261l57 -3v-80h-238v76l33 3q15 2 22 8.5t7 24.5v206q0 52 -16.5 80t-64 28t-76 -29.5t-28.5 -71.5v-242l57 -3v-80h-238v76l33 3q15 2 22 8.5t7 24.5zM7 736l-41 34
l118 128q21 23 42 23l40 -21l120 -129l-41 -35l-120 86z" />
    <glyph glyph-name="Hbar" unicode="&#x126;" horiz-adv-x="728" 
d="M505 117v173h-283v-202l58 -3v-85h-242v81l33 3q29 3 29 28v340h-62v77h62v48l-57 3v85h242v-81l-33 -3q-16 -2 -23 -8.5t-7 -24.5v-19h283v48l-57 3v85h242v-81l-33 -3q-29 -3 -29 -32v-20h67v-77h-67v-364l57 -3v-85h-242v81l33 3q15 2 22 8.5t7 24.5zM222 393h283v59
h-283v-59z" />
    <glyph glyph-name="hbar" unicode="&#x127;" horiz-adv-x="600" 
d="M376 528h-164v-109q52 74 146 74q76 0 117.5 -43.5t41.5 -130.5v-236l57 -3v-80h-238v76l33 3q15 2 22 8.5t7 24.5v181q0 52 -16.5 80t-64 28t-76 -29.5t-28.5 -71.5v-217l57 -3v-80h-238v76l33 3q15 2 22 8.5t7 24.5v416h-65v72h65v4q0 16 -5.5 22t-19.5 7l-35 2v78h178
v-113h164v-72z" />
    <glyph glyph-name="Itilde" unicode="&#x128;" horiz-adv-x="307" 
d="M94 117v460l-57 3v85h242v-81l-33 -3q-29 -3 -29 -32v-461l57 -3v-85h-242v81l33 3q15 2 22 8.5t7 24.5zM43 728l-48 35q36 79 102 79q24 0 70 -14t67.5 -14t40.5 32l54 -29q-33 -87 -103 -87q-22 0 -66 13.5t-61.5 13.5t-28.5 -5.5t-27 -23.5z" />
    <glyph glyph-name="itilde" unicode="&#x129;" horiz-adv-x="296" 
d="M214 503v-420l57 -3v-80h-238v76l33 3q29 3 29 32v278q0 17 -5.5 23t-19.5 6l-35 2v83h179zM16 596l-48 35q36 79 102 79q24 0 70 -14t67.5 -14t40.5 32l54 -29q-33 -87 -103 -87q-22 0 -66 13.5t-61.5 13.5t-28.5 -5.5t-27 -23.5z" />
    <glyph glyph-name="Imacron" unicode="&#x12a;" horiz-adv-x="307" 
d="M94 117v460l-57 3v85h242v-81l-33 -3q-29 -3 -29 -32v-461l57 -3v-85h-242v81l33 3q15 2 22 8.5t7 24.5zM12 734v87h287v-87h-287z" />
    <glyph glyph-name="imacron" unicode="&#x12b;" horiz-adv-x="296" 
d="M214 503v-420l57 -3v-80h-238v76l33 3q29 3 29 32v278q0 17 -5.5 23t-19.5 6l-35 2v83h179zM-15 610v84h287v-84h-287z" />
    <glyph glyph-name="Ibreve" unicode="&#x12c;" horiz-adv-x="307" 
d="M94 117v460l-57 3v85h242v-81l-33 -3q-29 -3 -29 -32v-461l57 -3v-85h-242v81l33 3q15 2 22 8.5t7 24.5zM258 874l66 -27q-42 -127 -169.5 -127t-162.5 126l67 28q31 -78 100 -78q37 0 59.5 18.5t39.5 59.5z" />
    <glyph glyph-name="ibreve" unicode="&#x12d;" horiz-adv-x="296" 
d="M214 503v-420l57 -3v-80h-238v76l33 3q29 3 29 32v278q0 17 -5.5 23t-19.5 6l-35 2v83h179zM229 721l65 -15q-16 -68 -56.5 -106t-108 -38t-107.5 41.5t-49 102.5l68 16q28 -84 94 -84q31 0 53.5 18.5t40.5 64.5z" />
    <glyph glyph-name="Iogonek" unicode="&#x12e;" horiz-adv-x="307" 
d="M94 117v460l-57 3v85h242v-81l-33 -3q-29 -3 -29 -32v-461l57 -3v-85q-106 -41 -106 -97q0 -38 41 -38q22 0 47 11l22 -66q-50 -24 -104.5 -24t-80 27.5t-25.5 68t22.5 64.5t64.5 47v7h-123v81l33 3q15 2 22 8.5t7 24.5z" />
    <glyph glyph-name="iogonek" unicode="&#x12f;" horiz-adv-x="296" 
d="M214 503v-420l57 -3v-80q-117 -38 -117 -97q0 -38 41 -38q22 0 47 11l22 -66q-50 -24 -104.5 -24t-80 27.5t-25.5 68t24 65.5t65 44v9h-110v76l33 3q29 3 29 32v278q0 17 -5.5 23t-19.5 6l-35 2v83h179zM67 642q0 32 21 53.5t55 21.5t55.5 -21.5t21.5 -53.5t-21.5 -52.5
t-55.5 -20.5t-55 20.5t-21 52.5z" />
    <glyph glyph-name="Idotaccent" unicode="&#x130;" horiz-adv-x="307" 
d="M94 117v460l-57 3v85h242v-81l-33 -3q-29 -3 -29 -32v-461l57 -3v-85h-242v81l33 3q15 2 22 8.5t7 24.5zM108 745.5q-19 18.5 -19 47t19.5 48t49.5 19.5t49.5 -19.5t19.5 -48t-19.5 -47t-50 -18.5t-49.5 18.5z" />
    <glyph glyph-name="dotlessi" unicode="&#x131;" horiz-adv-x="296" 
d="M214 503v-420l57 -3v-80h-238v76l33 3q29 3 29 32v278q0 17 -5.5 23t-19.5 6l-35 2v83h179z" />
    <glyph glyph-name="IJ" unicode="&#x132;" horiz-adv-x="781" 
d="M94 117v460l-57 3v85h242v-81l-33 -3q-29 -3 -29 -32v-461l57 -3v-85h-242v81l33 3q15 2 22 8.5t7 24.5zM700 134q-17 -147 -196 -147q-95 0 -169 42v175l102 7v-79q0 -15 4 -22t21 -13.5t52.5 -6.5t51.5 21.5t16 69.5v395l-78 4v85h262v-81l-33 -3q-29 -3 -29 -31v-311
q0 -71 -4 -105z" />
    <glyph glyph-name="ij" unicode="&#x133;" horiz-adv-x="579" 
d="M214 503v-420l57 -3v-80h-238v76l33 3q29 3 29 32v278q0 17 -5.5 23t-19.5 6l-35 2v83h179zM67 642q0 32 21 53.5t55 21.5t55.5 -21.5t21.5 -53.5t-21.5 -52.5t-55.5 -20.5t-55 20.5t-21 52.5zM504 503v-527q0 -80 -26 -130q-33 -60 -134 -60q-72 0 -128 35l36 83
q39 -21 71.5 -21t47 20t14.5 68v418q0 16 -5.5 22t-19.5 7l-35 2v83h179zM357 642q0 32 21 53.5t55 21.5t55.5 -21.5t21.5 -53.5t-21.5 -52.5t-55.5 -20.5t-55 20.5t-21 52.5z" />
    <glyph glyph-name="Jcircumflex" unicode="&#x134;" horiz-adv-x="474" 
d="M393 134q-17 -147 -197 -147q-94 0 -168 42v175l102 7v-79q0 -15 4 -22t21 -13.5t52.5 -6.5t51.5 21.5t16 69.5v395l-78 4v85h262v-81l-33 -3q-29 -3 -29 -31v-311q0 -71 -4 -105zM208 709l-41 34l118 128q21 23 42 23l40 -21l120 -129l-41 -35l-120 86z" />
    <glyph glyph-name="jcircumflex" unicode="&#x135;" horiz-adv-x="283" 
d="M208 503v-527q0 -80 -26 -130q-33 -60 -134 -60q-72 0 -128 35l36 83q39 -21 71.5 -21t47 20t14.5 68v418q0 16 -5.5 22t-19.5 7l-35 2v83h179zM7 562l-41 32l115 151q20 26 43 26q25 0 46 -28l113 -148l-41 -34l-118 104z" />
    <glyph glyph-name="Kcommaaccent" unicode="&#x136;" horiz-adv-x="622" 
d="M94 117v460l-57 3v85h240v-81l-33 -3q-29 -3 -29 -32v-220l204 248l-56 3v85h234v-81l-33 -3q-19 -2 -40 -28l-142 -174l177 -291l53 -3v-85h-256v81l31 3q20 2 20 16q0 6 -5 16l-99 171l-88 -106v-93l57 -3v-85h-240v81l33 3q15 2 22 8.5t7 24.5zM279 -61l49 -10
q32 -6 37 -29q1 -4 1 -15.5t-14 -30.5l-86 -135l-46 22z" />
    <glyph glyph-name="kcommaaccent" unicode="&#x137;" horiz-adv-x="556" 
d="M95 112v487q0 16 -5.5 22t-19.5 7l-35 2v83h178v-433q55 5 96 34t56 76q3 10 3 16q0 17 -19 17l-38 2v78h207v-81l-48 -2q-13 -102 -88 -161l98 -176l61 -3v-80h-146l-114 208q-33 -9 -68 -14v-111h1l57 -3v-80h-238v76l33 3q15 2 22 8.5t7 24.5zM249 -61l49 -10
q32 -6 37 -29q1 -4 1 -15.5t-14 -30.5l-86 -135l-46 22z" />
    <glyph glyph-name="kgreenlandic" unicode="&#x138;" horiz-adv-x="556" 
d="M95 112v277q0 16 -5.5 22t-19.5 7l-35 2v83h178v-223q55 5 96 34t56 76q3 10 3 16q0 17 -19 17l-38 2v78h207v-81l-48 -2q-13 -102 -88 -161l98 -176l61 -3v-80h-146l-114 208q-33 -9 -68 -14v-111h1l57 -3v-80h-238v76l33 3q15 2 22 8.5t7 24.5z" />
    <glyph glyph-name="Lacute" unicode="&#x139;" horiz-adv-x="537" 
d="M507 0h-475v81l33 3q29 3 29 28v465l-57 3v85h241v-81l-33 -3q-29 -3 -29 -32v-446h166q14 0 18.5 7.5t4.5 24.5v70l102 -7v-198zM58 750l162 157l40 -33q18 -17 18 -33q0 -25 -35 -45l-155 -87z" />
    <glyph glyph-name="lacute" unicode="&#x13a;" horiz-adv-x="298" 
d="M212 713v-630l57 -3v-80h-238v76l33 3q29 3 29 32v493q0 22 -25 24l-35 2v83h179zM34 781l162 157l40 -33q18 -17 18 -33q0 -25 -35 -45l-155 -87z" />
    <glyph glyph-name="Lcommaaccent" unicode="&#x13b;" horiz-adv-x="537" 
d="M507 0h-475v81l33 3q29 3 29 28v465l-57 3v85h241v-81l-33 -3q-29 -3 -29 -32v-446h166q14 0 18.5 7.5t4.5 24.5v70l102 -7v-198zM257 -61l49 -10q32 -6 37 -29q1 -4 1 -15.5t-14 -30.5l-86 -135l-46 22z" />
    <glyph glyph-name="lcommaaccent" unicode="&#x13c;" horiz-adv-x="298" 
d="M212 713v-630l57 -3v-80h-238v76l33 3q29 3 29 32v493q0 22 -25 24l-35 2v83h179zM122 -61l49 -10q32 -6 37 -29q1 -4 1 -15.5t-14 -30.5l-86 -135l-46 22z" />
    <glyph glyph-name="Lcaron" unicode="&#x13d;" horiz-adv-x="537" 
d="M507 0h-475v81l33 3q29 3 29 28v465l-57 3v85h241v-81l-33 -3q-29 -3 -29 -32v-446h166q14 0 18.5 7.5t4.5 24.5v70l102 -7v-198zM420 663q40 0 40 -40q0 -12 -4 -26l-46 -159l-48 9v211l50 5h8z" />
    <glyph glyph-name="lcaron" unicode="&#x13e;" horiz-adv-x="378" 
d="M212 713v-630l57 -3v-80h-238v76l33 3q29 3 29 32v493q0 22 -25 24l-35 2v83h179zM337 718q40 0 40 -40q0 -12 -4 -26l-46 -159l-48 9v211l50 5h8z" />
    <glyph glyph-name="Ldot" unicode="&#x13f;" horiz-adv-x="537" 
d="M507 0h-475v81l33 3q29 3 29 28v465l-57 3v85h241v-81l-33 -3q-29 -3 -29 -32v-446h166q14 0 18.5 7.5t4.5 24.5v70l102 -7v-198zM357 332.5q-19 18.5 -19 47t19.5 48t49.5 19.5t49.5 -19.5t19.5 -48t-19.5 -47t-50 -18.5t-49.5 18.5z" />
    <glyph glyph-name="ldot" unicode="&#x140;" horiz-adv-x="379" 
d="M212 713v-630l57 -3v-80h-238v76l33 3q29 3 29 32v493q0 22 -25 24l-35 2v83h179zM290 332.5q-19 18.5 -19 47t19.5 48t49.5 19.5t49.5 -19.5t19.5 -48t-19.5 -47t-50 -18.5t-49.5 18.5z" />
    <glyph glyph-name="Lslash" unicode="&#x141;" horiz-adv-x="537" 
d="M507 0h-475v81l33 3q29 3 29 28v132l-66 -36l-23 87l89 48v234l-57 3v85h241v-81l-33 -3q-29 -3 -29 -32v-155l185 97l24 -88l-209 -108v-192h166q14 0 18.5 7.5t4.5 24.5v70l102 -7v-198z" />
    <glyph glyph-name="lslash" unicode="&#x142;" horiz-adv-x="328" 
d="M227 713v-253l72 52l33 -87l-105 -73v-269l57 -3v-80h-238v76l33 3q29 3 29 32v179l-65 -47l-33 87l98 67v207q0 22 -25 24l-35 2v83h179z" />
    <glyph glyph-name="Nacute" unicode="&#x143;" horiz-adv-x="705" 
d="M32 0v81l36 3q26 2 26 28v465l-57 3v85h180l283 -459h2v371l-66 3v85h244v-81l-36 -3q-24 -2 -24 -31v-550h-117l-289 466h-2v-378l65 -3v-85h-245zM269 750l162 157l40 -33q18 -17 18 -33q0 -25 -35 -45l-155 -87z" />
    <glyph glyph-name="nacute" unicode="&#x144;" horiz-adv-x="600" 
d="M27 423v80h169v-65q26 37 69 58.5t93 21.5q76 0 117.5 -43.5t41.5 -130.5v-261l57 -3v-80h-238v76l33 3q15 2 22 8.5t7 24.5v206q0 55 -17 81.5t-64.5 26.5t-75.5 -30t-28 -71v-242l57 -3v-80h-238v76l33 3q15 2 22 8.5t7 24.5v277q0 30 -25 31zM217 594l116 192l47 -22
q29 -16 29 -36t-25 -43l-128 -124z" />
    <glyph glyph-name="Ncommaaccent" unicode="&#x145;" horiz-adv-x="705" 
d="M32 0v81l36 3q26 2 26 28v465l-57 3v85h180l283 -459h2v371l-66 3v85h244v-81l-36 -3q-24 -2 -24 -31v-550h-117l-289 466h-2v-378l65 -3v-85h-245zM313 -61l49 -10q32 -6 37 -29q1 -4 1 -15.5t-14 -30.5l-86 -135l-46 22z" />
    <glyph glyph-name="ncommaaccent" unicode="&#x146;" horiz-adv-x="600" 
d="M27 423v80h169v-65q26 37 69 58.5t93 21.5q76 0 117.5 -43.5t41.5 -130.5v-261l57 -3v-80h-238v76l33 3q15 2 22 8.5t7 24.5v206q0 55 -17 81.5t-64.5 26.5t-75.5 -30t-28 -71v-242l57 -3v-80h-238v76l33 3q15 2 22 8.5t7 24.5v277q0 30 -25 31zM270 -61l49 -10
q32 -6 37 -29q1 -4 1 -15.5t-14 -30.5l-86 -135l-46 22z" />
    <glyph glyph-name="Ncaron" unicode="&#x147;" horiz-adv-x="705" 
d="M32 0v81l36 3q26 2 26 28v465l-57 3v85h180l283 -459h2v371l-66 3v85h244v-81l-36 -3q-24 -2 -24 -31v-550h-117l-289 466h-2v-378l65 -3v-85h-245zM470 893l41 -34l-118 -128q-21 -23 -42 -23l-40 21l-120 129l41 35l120 -86z" />
    <glyph glyph-name="ncaron" unicode="&#x148;" horiz-adv-x="600" 
d="M27 423v80h169v-65q26 37 69 58.5t93 21.5q76 0 117.5 -43.5t41.5 -130.5v-261l57 -3v-80h-238v76l33 3q15 2 22 8.5t7 24.5v206q0 55 -17 81.5t-64.5 26.5t-75.5 -30t-28 -71v-242l57 -3v-80h-238v76l33 3q15 2 22 8.5t7 24.5v277q0 30 -25 31zM414 771l41 -32
l-115 -146q-20 -26 -43 -26q-25 0 -46 28l-113 143l41 34l118 -104z" />
    <glyph glyph-name="napostrophe" unicode="&#x149;" horiz-adv-x="600" 
d="M27 423v80h169v-65q26 37 69 58.5t93 21.5q76 0 117.5 -43.5t41.5 -130.5v-261l57 -3v-80h-238v76l33 3q15 2 22 8.5t7 24.5v206q0 55 -17 81.5t-64.5 26.5t-75.5 -30t-28 -71v-242l57 -3v-80h-238v76l33 3q15 2 22 8.5t7 24.5v277q0 30 -25 31zM-73 481l34 210l48 -2
q30 -1 37 -22q3 -7 3 -18.5t-9 -27.5l-69 -155z" />
    <glyph glyph-name="Eng" unicode="&#x14a;" horiz-adv-x="705" 
d="M32 0v81l36 3q26 2 26 28v465l-57 3v85h180l280 -453h2v365l-66 3v85h247v-81l-36 -3q-24 -2 -24 -31v-572q0 -98 -33.5 -146.5t-125 -48.5t-168.5 45l44 87q52 -32 92 -32t54.5 21.5t14.5 72.5v31l-282 454h-2v-374l65 -3v-85h-247z" />
    <glyph glyph-name="eng" unicode="&#x14b;" horiz-adv-x="592" 
d="M27 423v80h169v-65q26 37 69 58.5t93 21.5q76 0 117.5 -43.5t41.5 -130.5v-368q0 -80 -27 -130q-32 -60 -133 -60q-72 0 -128 35l36 83q39 -21 71.5 -21t47 20t14.5 68v347q0 55 -17 81.5t-64.5 26.5t-75.5 -30t-28 -71v-242l57 -3v-80h-238v76l33 3q15 2 22 8.5t7 24.5
v277q0 30 -25 31z" />
    <glyph glyph-name="Omacron" unicode="&#x14c;" horiz-adv-x="664" 
d="M544 593q80 -84 80 -256.5t-79.5 -261t-215 -88.5t-212.5 88t-77 256q0 92 27 161.5t71 107.5q89 77 207.5 77t198.5 -84zM165 336q0 -248 172 -248q92 0 129 76q34 67 34 164q0 87 -30 160q-17 40 -51.5 63t-89.5 23t-94.5 -36t-54.5 -87t-15 -115zM192 734v87h287v-87
h-287z" />
    <glyph glyph-name="omacron" unicode="&#x14d;" horiz-adv-x="528" 
d="M263 73q109 0 109 176q0 89 -24.5 135t-82 46t-84.5 -44t-27 -120q0 -141 52 -177q23 -16 57 -16zM33 252q0 74 22 128.5t59 83.5q71 54 157 54q60 0 101.5 -19.5t65 -45t40 -74t16.5 -114.5q0 -138 -67 -209t-171.5 -71t-163.5 67.5t-59 199.5zM118 610v84h287v-84h-287
z" />
    <glyph glyph-name="Obreve" unicode="&#x14e;" horiz-adv-x="664" 
d="M544 593q80 -84 80 -256.5t-79.5 -261t-215 -88.5t-212.5 88t-77 256q0 92 27 161.5t71 107.5q89 77 207.5 77t198.5 -84zM165 336q0 -248 172 -248q92 0 129 76q34 67 34 164q0 87 -30 160q-17 40 -51.5 63t-89.5 23t-94.5 -36t-54.5 -87t-15 -115zM435 874l66 -27
q-42 -127 -169.5 -127t-162.5 126l67 28q31 -78 100 -78q37 0 59.5 18.5t39.5 59.5z" />
    <glyph glyph-name="obreve" unicode="&#x14f;" horiz-adv-x="528" 
d="M263 73q109 0 109 176q0 89 -24.5 135t-82 46t-84.5 -44t-27 -120q0 -141 52 -177q23 -16 57 -16zM33 252q0 74 22 128.5t59 83.5q71 54 157 54q60 0 101.5 -19.5t65 -45t40 -74t16.5 -114.5q0 -138 -67 -209t-171.5 -71t-163.5 67.5t-59 199.5zM356 721l65 -15
q-16 -68 -56.5 -106t-108 -38t-107.5 41.5t-49 102.5l68 16q28 -84 94 -84q31 0 53.5 18.5t40.5 64.5z" />
    <glyph glyph-name="Ohungarumlaut" unicode="&#x150;" horiz-adv-x="664" 
d="M544 593q80 -84 80 -256.5t-79.5 -261t-215 -88.5t-212.5 88t-77 256q0 92 27 161.5t71 107.5q89 77 207.5 77t198.5 -84zM165 336q0 -248 172 -248q92 0 129 76q34 67 34 164q0 87 -30 160q-17 40 -51.5 63t-89.5 23t-94.5 -36t-54.5 -87t-15 -115zM180 744l165 153
l40 -34q17 -17 17 -27q0 -30 -36 -51l-157 -83zM388 744l165 153l40 -34q17 -17 17 -27q0 -30 -36 -51l-157 -83z" />
    <glyph glyph-name="ohungarumlaut" unicode="&#x151;" horiz-adv-x="528" 
d="M263 73q109 0 109 176q0 89 -24.5 135t-82 46t-84.5 -44t-27 -120q0 -141 52 -177q23 -16 57 -16zM33 252q0 74 22 128.5t59 83.5q71 54 157 54q60 0 101.5 -19.5t65 -45t40 -74t16.5 -114.5q0 -138 -67 -209t-171.5 -71t-163.5 67.5t-59 199.5zM125 597l116 192l43 -20
q29 -16 29 -36t-25 -43l-124 -126zM295 594l116 192l43 -20q29 -16 29 -36t-25 -43l-124 -126z" />
    <glyph glyph-name="OE" unicode="&#x152;" horiz-adv-x="886" 
d="M834 665v-166l-102 -7v40q0 17 -5 24t-24 7h-148v-171h231v-102h-231v-187h161q18 0 23 7.5t5 24.5v50l102 -7v-178h-402q-54 -13 -112 -13q-139 0 -215.5 88t-76.5 257q0 74 18 134t47.5 98.5t69.5 64.5q74 48 170 48q46 0 99 -12h390zM165 337q0 -132 54 -195
q46 -54 128 -54q51 0 86 15v452q-46 20 -88 20q-91 0 -135.5 -69t-44.5 -169z" />
    <glyph glyph-name="oe" unicode="&#x153;" horiz-adv-x="807" 
d="M607 518q75 0 119 -36.5t44 -97t-27 -98.5t-73 -56q-80 -32 -185 -32q3 -54 33.5 -86.5t91 -32.5t124.5 45l38 -81q-20 -18 -67.5 -37t-108.5 -19q-129 0 -178 85q-49 -86 -167 -86q-101 0 -159.5 66.5t-58.5 198.5q0 74 22 129t58 84q69 54 153 54q120 0 164 -91
q57 91 177 91zM263 73q55 0 82 47t27 129q0 181 -107 181q-56 0 -83.5 -44.5t-27.5 -120.5q0 -139 52 -176q23 -16 57 -16zM625 316q35 23 35 54t-16.5 47t-43.5 16q-55 0 -85.5 -45t-33.5 -107h22t52 6t70 29z" />
    <glyph glyph-name="Racute" unicode="&#x154;" horiz-adv-x="626" 
d="M32 0v81l33 3q29 3 29 28v465l-57 3v85h273q116 0 178 -43t62 -141q0 -68 -35.5 -112t-84.5 -64q36 -13 57 -61l72 -157l57 -2v-85h-247v81l29 3q23 3 23 18q0 6 -4 14l-47 100q-11 25 -24.5 35.5t-38.5 10.5h-91v-174l65 -3v-85h-249zM216 357h87q123 0 123 110
q0 63 -32.5 82t-104.5 19h-73v-211zM204 750l162 157l40 -33q18 -17 18 -33q0 -25 -35 -45l-155 -87z" />
    <glyph glyph-name="racute" unicode="&#x155;" horiz-adv-x="462" 
d="M95 112v277q0 16 -5.5 22.5t-19.5 7.5l-42 3v81h169v-75q18 39 56 64.5t87.5 25.5t94.5 -22v-149l-93 -7v46q0 20 -10 25q-11 5 -27 5q-40 0 -65.5 -28.5t-25.5 -72.5v-232l87 -4v-79h-268v76l33 3q15 2 22 8.5t7 24.5zM173 594l116 192l47 -22q29 -16 29 -36t-25 -43
l-128 -124z" />
    <glyph glyph-name="Rcommaaccent" unicode="&#x156;" horiz-adv-x="626" 
d="M32 0v81l33 3q29 3 29 28v465l-57 3v85h273q116 0 178 -43t62 -141q0 -68 -35.5 -112t-84.5 -64q36 -13 57 -61l72 -157l57 -2v-85h-247v81l29 3q23 3 23 18q0 6 -4 14l-47 100q-11 25 -24.5 35.5t-38.5 10.5h-91v-174l65 -3v-85h-249zM216 357h87q123 0 123 110
q0 63 -32.5 82t-104.5 19h-73v-211zM283 -61l49 -10q32 -6 37 -29q1 -4 1 -15.5t-14 -30.5l-86 -135l-46 22z" />
    <glyph glyph-name="rcommaaccent" unicode="&#x157;" horiz-adv-x="462" 
d="M95 112v277q0 16 -5.5 22.5t-19.5 7.5l-42 3v81h169v-75q18 39 56 64.5t87.5 25.5t94.5 -22v-149l-93 -7v46q0 20 -10 25q-11 5 -27 5q-40 0 -65.5 -28.5t-25.5 -72.5v-232l87 -4v-79h-268v76l33 3q15 2 22 8.5t7 24.5zM138 -61l49 -10q32 -6 37 -29q1 -4 1 -15.5
t-14 -30.5l-86 -135l-46 22z" />
    <glyph glyph-name="Rcaron" unicode="&#x158;" horiz-adv-x="626" 
d="M32 0v81l33 3q29 3 29 28v465l-57 3v85h273q116 0 178 -43t62 -141q0 -68 -35.5 -112t-84.5 -64q36 -13 57 -61l72 -157l57 -2v-85h-247v81l29 3q23 3 23 18q0 6 -4 14l-47 100q-11 25 -24.5 35.5t-38.5 10.5h-91v-174l65 -3v-85h-249zM216 357h87q123 0 123 110
q0 63 -32.5 82t-104.5 19h-73v-211zM398 893l41 -34l-118 -128q-21 -23 -42 -23l-40 21l-120 129l41 35l120 -86z" />
    <glyph glyph-name="rcaron" unicode="&#x159;" horiz-adv-x="462" 
d="M95 112v277q0 16 -5.5 22.5t-19.5 7.5l-42 3v81h169v-75q18 39 56 64.5t87.5 25.5t94.5 -22v-149l-93 -7v46q0 20 -10 25q-11 5 -27 5q-40 0 -65.5 -28.5t-25.5 -72.5v-232l87 -4v-79h-268v76l33 3q15 2 22 8.5t7 24.5zM344 771l41 -32l-115 -146q-20 -26 -43 -26
q-25 0 -46 28l-113 143l41 34l118 -104z" />
    <glyph glyph-name="Sacute" unicode="&#x15a;" horiz-adv-x="522" 
d="M241 90q120 0 120 96q0 50 -53 74q-28 14 -72.5 26t-74 24.5t-59.5 34.5q-59 44 -59 135.5t63.5 144t166 52.5t190.5 -41v-150l-102 -7v58q0 15 -4 22q-11 19 -70.5 19t-88 -21t-28.5 -65q0 -32 24 -56q16 -16 47.5 -26.5t67 -21.5t63 -24t57.5 -36q61 -45 61 -139
t-67.5 -148t-178 -54t-198.5 41v158l102 7v-61q0 -15 4 -22t24.5 -13.5t64.5 -6.5zM184 750l162 157l40 -33q18 -17 18 -33q0 -25 -35 -45l-155 -87z" />
    <glyph glyph-name="sacute" unicode="&#x15b;" horiz-adv-x="451" 
d="M295 427q-24 9 -58 9t-54.5 -15.5t-20.5 -38t7.5 -35t23.5 -21.5q25 -13 60 -22.5t52 -15t42.5 -18.5t38.5 -28q35 -37 35 -95q0 -75 -54.5 -117.5t-138.5 -42.5q-122 0 -184 31v139l90 7v-48q0 -44 84 -44t84 61q0 22 -14.5 36t-28.5 19t-33.5 10t-38 10t-40 13.5
t-47.5 24.5q-51 33 -51 110.5t55 119.5t138.5 42t165.5 -40v-120l-90 -7v42q0 25 -23 34zM160 594l116 192l47 -22q29 -16 29 -36t-25 -43l-128 -124z" />
    <glyph glyph-name="Scircumflex" unicode="&#x15c;" horiz-adv-x="522" 
d="M241 90q120 0 120 96q0 50 -53 74q-28 14 -72.5 26t-74 24.5t-59.5 34.5q-59 44 -59 135.5t63.5 144t166 52.5t190.5 -41v-150l-102 -7v58q0 15 -4 22q-11 19 -70.5 19t-88 -21t-28.5 -65q0 -32 24 -56q16 -16 47.5 -26.5t67 -21.5t63 -24t57.5 -36q61 -45 61 -139
t-67.5 -148t-178 -54t-198.5 41v158l102 7v-61q0 -15 4 -22t24.5 -13.5t64.5 -6.5zM155 708l-41 34l118 128q21 23 42 23l40 -21l120 -129l-41 -35l-120 86z" />
    <glyph glyph-name="scircumflex" unicode="&#x15d;" horiz-adv-x="451" 
d="M295 427q-24 9 -58 9t-54.5 -15.5t-20.5 -38t7.5 -35t23.5 -21.5q25 -13 60 -22.5t52 -15t42.5 -18.5t38.5 -28q35 -37 35 -95q0 -75 -54.5 -117.5t-138.5 -42.5q-122 0 -184 31v139l90 7v-48q0 -44 84 -44t84 61q0 22 -14.5 36t-28.5 19t-33.5 10t-38 10t-40 13.5
t-47.5 24.5q-51 33 -51 110.5t55 119.5t138.5 42t165.5 -40v-120l-90 -7v42q0 25 -23 34zM119 562l-41 32l115 151q20 26 43 26q25 0 46 -28l113 -148l-41 -34l-118 104z" />
    <glyph glyph-name="Scedilla" unicode="&#x15e;" horiz-adv-x="522" 
d="M241 90q120 0 120 96q0 50 -53 74q-28 14 -72.5 26t-74 24.5t-59.5 34.5q-59 44 -59 135.5t63.5 144t166 52.5t190.5 -41v-150l-102 -7v58q0 15 -4 22q-11 19 -70.5 19t-88 -21t-28.5 -65q0 -32 24 -56q16 -16 47.5 -26.5t67 -21.5t63 -24t57.5 -36q61 -45 61 -135
t-56.5 -142.5t-148.5 -61.5l-13 -52q42 -3 67.5 -24t25.5 -64.5t-36.5 -67t-85.5 -23.5t-90 18l16 52q39 -13 67 -13q48 0 48 37.5t-88 37.5l31 97q-102 3 -181 41v158l102 7v-61q0 -15 4 -22t24.5 -13.5t64.5 -6.5z" />
    <glyph glyph-name="scedilla" unicode="&#x15f;" horiz-adv-x="451" 
d="M295 427q-24 9 -58 9t-54.5 -15.5t-20.5 -38t7.5 -35t23.5 -21.5q25 -13 60 -22.5t52 -15t42.5 -18.5t38.5 -28q35 -37 35 -100.5t-47.5 -105.5t-121.5 -48l-13 -51q42 -3 67.5 -24t25.5 -64.5t-36.5 -67t-85.5 -23.5t-90 18l16 52q39 -13 67 -13q48 0 48 37.5t-88 37.5
l31 98q-102 5 -150 30v139l90 7v-48q0 -44 84 -44t84 61q0 22 -14.5 36t-28.5 19t-33.5 10t-38 10t-40 13.5t-47.5 24.5q-51 33 -51 110.5t55 119.5t138.5 42t165.5 -40v-120l-90 -7v42q0 25 -23 34z" />
    <glyph glyph-name="Scaron" unicode="&#x160;" horiz-adv-x="522" 
d="M241 90q120 0 120 96q0 50 -53 74q-28 14 -72.5 26t-74 24.5t-59.5 34.5q-59 44 -59 135.5t63.5 144t166 52.5t190.5 -41v-150l-102 -7v58q0 15 -4 22q-11 19 -70.5 19t-88 -21t-28.5 -65q0 -32 24 -56q16 -16 47.5 -26.5t67 -21.5t63 -24t57.5 -36q61 -45 61 -139
t-67.5 -148t-178 -54t-198.5 41v158l102 7v-61q0 -15 4 -22t24.5 -13.5t64.5 -6.5zM386 893l41 -34l-118 -128q-21 -23 -42 -23l-40 21l-120 129l41 35l120 -86z" />
    <glyph glyph-name="scaron" unicode="&#x161;" horiz-adv-x="451" 
d="M295 427q-24 9 -58 9t-54.5 -15.5t-20.5 -38t7.5 -35t23.5 -21.5q25 -13 60 -22.5t52 -15t42.5 -18.5t38.5 -28q35 -37 35 -95q0 -75 -54.5 -117.5t-138.5 -42.5q-122 0 -184 31v139l90 7v-48q0 -44 84 -44t84 61q0 22 -14.5 36t-28.5 19t-33.5 10t-38 10t-40 13.5
t-47.5 24.5q-51 33 -51 110.5t55 119.5t138.5 42t165.5 -40v-120l-90 -7v42q0 25 -23 34zM352 771l41 -32l-115 -146q-20 -26 -43 -26q-25 0 -46 28l-113 143l41 34l118 -104z" />
    <glyph glyph-name="uni0162" unicode="&#x162;" horiz-adv-x="553" 
d="M218 112v447h-78q-23 0 -23 -31v-40l-102 7v170h523v-170l-102 -7v40q0 17 -5 24t-24 7h-68v-471l79 -3v-85h-115l-16 -63q42 -3 67.5 -24t25.5 -64.5t-36.5 -67t-85.5 -23.5t-90 18l16 52q39 -13 67 -13q48 0 48 37.5t-88 37.5l35 110h-110v81l53 3q29 3 29 28z" />
    <glyph glyph-name="uni0163" unicode="&#x163;" horiz-adv-x="377" 
d="M144 609h65v-106h133l-10 -84h-123v-263q0 -44 16 -61.5t49.5 -17.5t67.5 21l30 -77q-48 -33 -125 -35l-12 -49q42 -3 67.5 -24t25.5 -64.5t-36.5 -67t-85.5 -23.5t-90 18l16 52q39 -13 67 -13q48 0 48 37.5t-88 37.5l32 101q-54 11 -80 47q-10 14 -15 38q-6 29 -6 76
v267h-71l10 73q47 4 71 33.5t44 83.5z" />
    <glyph glyph-name="Tcaron" unicode="&#x164;" horiz-adv-x="553" 
d="M218 112v454h-78q-23 0 -23 -31v-47l-102 7v170h523v-170l-102 -7v47q0 17 -5 24t-24 7h-68v-478l79 -3v-85h-282v81l53 3q29 3 29 28zM399 893l41 -34l-118 -128q-21 -23 -42 -23l-40 21l-120 129l41 35l120 -86z" />
    <glyph glyph-name="tcaron" unicode="&#x165;" horiz-adv-x="377" 
d="M144 609h65v-106h133l-10 -84h-123v-263q0 -44 16 -61.5t49.5 -17.5t67.5 21l30 -77q-50 -35 -127 -35q-45 0 -76 11.5t-46 25.5t-23 41t-9 42.5t-1 45.5v267h-71l10 73q47 4 71 33.5t44 83.5zM330 774q40 0 40 -40q0 -12 -4 -26l-46 -159l-48 9v211l50 5h8z" />
    <glyph glyph-name="Tbar" unicode="&#x166;" horiz-adv-x="553" 
d="M218 112v160h-125v90h125v197h-78q-23 0 -23 -31v-40l-102 7v170h523v-170l-102 -7v40q0 17 -5 24t-24 7h-68v-197h124v-90h-124v-184l79 -3v-85h-282v81l53 3q29 3 29 28z" />
    <glyph glyph-name="tbar" unicode="&#x167;" horiz-adv-x="377" 
d="M144 609h65v-106h133l-10 -84h-123v-96h120v-84h-120v-83q0 -44 16 -61.5t49.5 -17.5t67.5 21l30 -77q-50 -35 -127 -35q-45 0 -76 11.5t-46 25.5t-23 41t-9 42.5t-1 45.5v87h-70v84h70v96h-71l10 73q47 4 71 33.5t44 83.5z" />
    <glyph glyph-name="Utilde" unicode="&#x168;" horiz-adv-x="659" 
d="M201 548v-332q0 -70 33.5 -98.5t96 -28.5t97 31t34.5 91v366l-58 3v85h237v-81l-33 -3q-29 -3 -29 -30v-357q0 -97 -68 -152t-188 -55t-181.5 53.5t-61.5 169.5v367l-58 3v85h242v-81l-33 -3q-16 -2 -23 -8.5t-7 -24.5zM219 728l-48 35q36 79 102 79q24 0 70 -14
t67.5 -14t40.5 32l54 -29q-33 -87 -103 -87q-22 0 -66 13.5t-61.5 13.5t-28.5 -5.5t-27 -23.5z" />
    <glyph glyph-name="utilde" unicode="&#x169;" horiz-adv-x="591" 
d="M563 79v-79h-162v65q-55 -78 -162 -78q-155 0 -155 173v231q0 27 -25 28l-32 2v82h176v-317q0 -53 15 -80t62 -27t75.5 29t28.5 70v211q0 16 -5.5 22.5t-19.5 7.5l-32 2v82h176v-392q0 -16 5 -21.5t20 -7.5zM157 596l-48 35q36 79 102 79q24 0 70 -14t67.5 -14t40.5 32
l54 -29q-33 -87 -103 -87q-22 0 -66 13.5t-61.5 13.5t-28.5 -5.5t-27 -23.5z" />
    <glyph glyph-name="Umacron" unicode="&#x16a;" horiz-adv-x="659" 
d="M201 548v-332q0 -70 33.5 -98.5t96 -28.5t97 31t34.5 91v366l-58 3v85h237v-81l-33 -3q-29 -3 -29 -30v-357q0 -97 -68 -152t-188 -55t-181.5 53.5t-61.5 169.5v367l-58 3v85h242v-81l-33 -3q-16 -2 -23 -8.5t-7 -24.5zM188 734v87h287v-87h-287z" />
    <glyph glyph-name="umacron" unicode="&#x16b;" horiz-adv-x="591" 
d="M563 79v-79h-162v65q-55 -78 -162 -78q-155 0 -155 173v231q0 27 -25 28l-32 2v82h176v-317q0 -53 15 -80t62 -27t75.5 29t28.5 70v211q0 16 -5.5 22.5t-19.5 7.5l-32 2v82h176v-392q0 -16 5 -21.5t20 -7.5zM123 610v84h287v-84h-287z" />
    <glyph glyph-name="Ubreve" unicode="&#x16c;" horiz-adv-x="659" 
d="M201 548v-332q0 -70 33.5 -98.5t96 -28.5t97 31t34.5 91v366l-58 3v85h237v-81l-33 -3q-29 -3 -29 -30v-357q0 -97 -68 -152t-188 -55t-181.5 53.5t-61.5 169.5v367l-58 3v85h242v-81l-33 -3q-16 -2 -23 -8.5t-7 -24.5zM434 874l66 -27q-42 -127 -169.5 -127t-162.5 126
l67 28q31 -78 100 -78q37 0 59.5 18.5t39.5 59.5z" />
    <glyph glyph-name="ubreve" unicode="&#x16d;" horiz-adv-x="591" 
d="M563 79v-79h-162v65q-55 -78 -162 -78q-155 0 -155 173v231q0 27 -25 28l-32 2v82h176v-317q0 -53 15 -80t62 -27t75.5 29t28.5 70v211q0 16 -5.5 22.5t-19.5 7.5l-32 2v82h176v-392q0 -16 5 -21.5t20 -7.5zM369 721l65 -15q-16 -68 -56.5 -106t-108 -38t-107.5 41.5
t-49 102.5l68 16q28 -84 94 -84q31 0 53.5 18.5t40.5 64.5z" />
    <glyph glyph-name="Uring" unicode="&#x16e;" horiz-adv-x="659" 
d="M201 548v-332q0 -70 33.5 -98.5t96 -28.5t97 31t34.5 91v366l-58 3v85h237v-81l-33 -3q-29 -3 -29 -30v-357q0 -97 -68 -152t-188 -55t-181.5 53.5t-61.5 169.5v367l-58 3v85h242v-81l-33 -3q-16 -2 -23 -8.5t-7 -24.5zM264.5 726.5q-24.5 26.5 -24.5 67t26.5 66.5t69 26
t67.5 -25.5t25 -65.5t-26 -67.5t-69.5 -27.5t-68 26.5zM335 834q-36 0 -36 -41.5t36 -41.5q17 0 26.5 12t9.5 30q0 41 -36 41z" />
    <glyph glyph-name="uring" unicode="&#x16f;" horiz-adv-x="591" 
d="M563 79v-79h-162v65q-55 -78 -162 -78q-155 0 -155 173v231q0 27 -25 28l-32 2v82h176v-317q0 -53 15 -80t62 -27t75.5 29t28.5 70v211q0 16 -5.5 22.5t-19.5 7.5l-32 2v82h176v-392q0 -16 5 -21.5t20 -7.5zM206.5 590.5q-24.5 26.5 -24.5 67t26.5 66.5t69 26t67.5 -25.5
t25 -65.5t-26 -67.5t-69.5 -27.5t-68 26.5zM277 698q-36 0 -36 -41.5t36 -41.5q17 0 26.5 12t9.5 30q0 41 -36 41z" />
    <glyph glyph-name="Uhungarumlaut" unicode="&#x170;" horiz-adv-x="659" 
d="M201 548v-332q0 -70 33.5 -98.5t96 -28.5t97 31t34.5 91v366l-58 3v85h237v-81l-33 -3q-29 -3 -29 -30v-357q0 -97 -68 -152t-188 -55t-181.5 53.5t-61.5 169.5v367l-58 3v85h242v-81l-33 -3q-16 -2 -23 -8.5t-7 -24.5zM169 744l165 153l40 -34q17 -17 17 -27
q0 -30 -36 -51l-157 -83zM377 744l165 153l40 -34q17 -17 17 -27q0 -30 -36 -51l-157 -83z" />
    <glyph glyph-name="uhungarumlaut" unicode="&#x171;" horiz-adv-x="591" 
d="M563 79v-79h-162v65q-55 -78 -162 -78q-155 0 -155 173v231q0 27 -25 28l-32 2v82h176v-317q0 -53 15 -80t62 -27t75.5 29t28.5 70v211q0 16 -5.5 22.5t-19.5 7.5l-32 2v82h176v-392q0 -16 5 -21.5t20 -7.5zM139 597l116 192l43 -20q29 -16 29 -36t-25 -43l-124 -126z
M309 594l116 192l43 -20q29 -16 29 -36t-25 -43l-124 -126z" />
    <glyph glyph-name="Uogonek" unicode="&#x172;" horiz-adv-x="659" 
d="M201 548v-332q0 -70 33.5 -98.5t96 -28.5t97 31t34.5 91v366l-58 3v85h237v-81l-33 -3q-29 -3 -29 -30v-357q0 -119 -97 -172q-108 -59 -108 -119q0 -38 41 -38q22 0 47 11l22 -66q-50 -24 -104.5 -24t-80 27.5t-25.5 68.5q0 62 67 105h-13q-125 0 -186.5 53.5
t-61.5 169.5v367l-58 3v85h242v-81l-33 -3q-16 -2 -23 -8.5t-7 -24.5z" />
    <glyph glyph-name="uogonek" unicode="&#x173;" horiz-adv-x="591" 
d="M563 79v-79q-107 -41 -107 -97q0 -38 41 -38q22 0 47 11l22 -66q-50 -24 -104.5 -24t-80 27.5t-25.5 66.5q0 75 91 115v8h-46v62q-55 -78 -162 -78q-155 0 -155 173v231q0 27 -25 28l-32 2v82h176v-317q0 -53 15 -80t62 -27t75.5 29t28.5 70v211q0 16 -5.5 22.5
t-19.5 7.5l-32 2v82h176v-392q0 -16 5 -21.5t20 -7.5z" />
    <glyph glyph-name="Wcircumflex" unicode="&#x174;" horiz-adv-x="885" 
d="M880 584l-33 -3q-26 -2 -33 -36l-126 -545h-137l-105 445h-3l-102 -445h-141l-138 577l-57 3v85h248v-81l-33 -3q-31 -3 -31 -26q0 -4 1 -9l87 -386h4l104 452h129l108 -454h2l85 418l-54 4v85h225v-81zM326 708l-41 34l118 128q21 23 42 23l40 -21l120 -129l-41 -35
l-120 86z" />
    <glyph glyph-name="wcircumflex" unicode="&#x175;" horiz-adv-x="795" 
d="M364 483h97l104 -372h2l68 309l-51 3v80h201v-77l-33 -2q-20 -2 -27 -24l-95 -400h-144l-82 298h-3l-85 -298h-147l-101 399q-5 14 -10.5 19t-18.5 6l-29 2v77h229v-80l-56 -3l69 -307h2zM294 562l-41 32l115 151q20 26 43 26q25 0 46 -28l113 -148l-41 -34l-118 104z
" />
    <glyph glyph-name="Ycircumflex" unicode="&#x176;" horiz-adv-x="570" 
d="M222 112v142l-170 323l-47 3v85h244v-81l-30 -3q-16 -1 -20.5 -12t3.5 -27l85 -174h4l109 208l-50 4v85h215v-81l-30 -3q-19 -2 -34 -30l-157 -297v-166l78 -3v-85h-282v81l53 3q29 2 29 28zM166 708l-41 34l118 128q21 23 42 23l40 -21l120 -129l-41 -35l-120 86z" />
    <glyph glyph-name="ycircumflex" unicode="&#x177;" horiz-adv-x="573" 
d="M401 19v76q-55 -78 -162 -78q-155 0 -155 173v201q0 27 -25 28l-32 2v82h176v-287q0 -53 15 -80t62 -27t75.5 29t28.5 70v181q0 17 -5.5 23.5t-19.5 6.5l-32 2v82h176v-484q0 -121 -58.5 -177t-177 -56t-184.5 33v139l95 8v-48q0 -27 25 -36.5t69 -9.5q129 0 129 147z
M149 562l-41 32l115 151q20 26 43 26q25 0 46 -28l113 -148l-41 -34l-118 104z" />
    <glyph glyph-name="Ydieresis" unicode="&#x178;" horiz-adv-x="570" 
d="M222 112v142l-170 323l-47 3v85h244v-81l-30 -3q-16 -1 -20.5 -12t3.5 -27l85 -174h4l109 208l-50 4v85h215v-81l-30 -3q-19 -2 -34 -30l-157 -297v-166l78 -3v-85h-282v81l53 3q29 2 29 28zM347 739.5q-19 18.5 -19 47t19.5 48t49.5 19.5t49.5 -19.5t19.5 -48t-19.5 -47
t-50 -18.5t-49.5 18.5zM147 739.5q-19 18.5 -19 47t19.5 48t49.5 19.5t49.5 -19.5t19.5 -48t-19.5 -47t-50 -18.5t-49.5 18.5z" />
    <glyph glyph-name="Zacute" unicode="&#x179;" horiz-adv-x="533" 
d="M477 584l-305 -489h194q25 0 25 32v70l102 -7v-190h-460v83l302 487h-166q-27 0 -27 -31v-40l-102 7v159h437v-81zM178 750l162 157l40 -33q18 -17 18 -33q0 -25 -35 -45l-155 -87z" />
    <glyph glyph-name="zacute" unicode="&#x17a;" horiz-adv-x="483" 
d="M448 0h-408v76l257 338h-126q-21 0 -26.5 -8t-5.5 -26v-35l-94 7v151h398v-68l-260 -345h142q29 0 29 34v42l94 -7v-159zM163 594l116 192l47 -22q29 -16 29 -36t-25 -43l-128 -124z" />
    <glyph glyph-name="Zdotaccent" unicode="&#x17b;" horiz-adv-x="533" 
d="M477 584l-305 -489h194q25 0 25 32v70l102 -7v-190h-460v83l302 487h-166q-27 0 -27 -31v-40l-102 7v159h437v-81zM208 745.5q-19 18.5 -19 47t19.5 48t49.5 19.5t49.5 -19.5t19.5 -48t-19.5 -47t-50 -18.5t-49.5 18.5z" />
    <glyph glyph-name="zdotaccent" unicode="&#x17c;" horiz-adv-x="483" 
d="M448 0h-408v76l257 338h-126q-21 0 -26.5 -8t-5.5 -26v-35l-94 7v151h398v-68l-260 -345h142q29 0 29 34v42l94 -7v-159zM187 599.5q-19 18.5 -19 47t19.5 48t49.5 19.5t49.5 -19.5t19.5 -48t-19.5 -47t-50 -18.5t-49.5 18.5z" />
    <glyph glyph-name="Zcaron" unicode="&#x17d;" horiz-adv-x="533" 
d="M477 584l-305 -489h194q25 0 25 32v70l102 -7v-190h-460v83l302 487h-166q-27 0 -27 -31v-40l-102 7v159h437v-81zM384 893l41 -34l-118 -128q-21 -23 -42 -23l-40 21l-120 129l41 35l120 -86z" />
    <glyph glyph-name="zcaron" unicode="&#x17e;" horiz-adv-x="483" 
d="M448 0h-408v76l257 338h-126q-21 0 -26.5 -8t-5.5 -26v-35l-94 7v151h398v-68l-260 -345h142q29 0 29 34v42l94 -7v-159zM357 771l41 -32l-115 -146q-20 -26 -43 -26q-25 0 -46 28l-113 143l41 34l118 -104z" />
    <glyph glyph-name="longs" unicode="&#x17f;" horiz-adv-x="370" 
d="M96 112v307h-86v84h86v38q0 98 45 141q42 41 123 41t144 -35l-29 -80q-48 25 -90 25t-58 -20.5t-16 -62.5v-466l84 -4v-80h-265v76l33 3q15 2 22 8.5t7 24.5z" />
    <glyph glyph-name="florin" unicode="&#x192;" horiz-adv-x="547" 
d="M77 294l15 95h109l13 75q8 47 18.5 77t31.5 59q40 57 146 57q74 0 141 -35l-40 -80q-49 26 -88.5 26t-58 -18t-26.5 -58l-19 -103h148l-17 -95h-147l-53 -306q-8 -47 -19 -79t-33 -61q-43 -58 -149 -58q-74 0 -137 35l40 79q47 -25 93 -25q67 0 80 76l59 339h-107z" />
    <glyph glyph-name="Aringacute" unicode="&#x1fa;" horiz-adv-x="662" 
d="M68 112l161 466l-63 6v81h229l204 -577h1l57 -3v-85h-258v81l38 3q17 2 23 8t1 22l-21 62h-234l-30 -88l60 -3v-85h-231v81l33 3q21 2 30 28zM323 553l-93 -285h186l-90 285h-3zM234.5 717.5q-24.5 26.5 -24.5 67t26.5 66.5t69 26t67.5 -25.5t25 -65.5t-26 -67.5
t-69.5 -27.5t-68 26.5zM305 825q-36 0 -36 -41.5t36 -41.5q17 0 26.5 12t9.5 30q0 41 -36 41zM195 920l162 157l40 -33q18 -17 18 -33q0 -25 -35 -45l-155 -87z" />
    <glyph glyph-name="aringacute" unicode="&#x1fb;" horiz-adv-x="567" 
d="M482 483v-372q0 -16 5.5 -22t19.5 -7l32 -2v-80h-159v58l-3 1q-50 -72 -137 -72q-102 0 -151 65t-49 178q0 136 66 212t198 76q85 0 178 -35zM366 159v259q-28 13 -77 13q-67 0 -97 -54t-30 -143q0 -162 104 -162q44 0 72 26.5t28 60.5zM220.5 578.5q-24.5 26.5 -24.5 67
t26.5 66.5t69 26t67.5 -25.5t25 -65.5t-26 -67.5t-69.5 -27.5t-68 26.5zM291 686q-36 0 -36 -41.5t36 -41.5q17 0 26.5 12t9.5 30q0 41 -36 41zM180 787l162 157l40 -33q18 -17 18 -33q0 -25 -35 -45l-155 -87z" />
    <glyph glyph-name="AEacute" unicode="&#x1fc;" horiz-adv-x="854" 
d="M63 112l161 466l-63 6v81h641v-166l-102 -7v40q0 17 -5 24t-24 7h-225l59 -171h249v-102h-231l66 -187h95q18 0 23 7.5t5 24.5v50l102 -7v-178h-420v81l38 3q17 2 23 8t1 22l-21 62h-234l-30 -88l60 -3v-85h-231v81l33 3q21 2 30 28zM318 553l-93 -285h186l-90 285h-3z
M407 756l116 192l47 -22q29 -16 29 -36t-25 -43l-128 -124z" />
    <glyph glyph-name="aeacute" unicode="&#x1fd;" horiz-adv-x="765" 
d="M442 484q53 34 126 34t116.5 -36.5t43.5 -102.5q0 -179 -285 -181q3 -55 34 -87t90 -32t125 45l38 -81q-23 -19 -70 -37.5t-110 -18.5q-104 0 -158 54q-66 -54 -148 -54q-108 0 -156 67.5t-48 189.5t67 198t192 76q73 0 143 -34zM287 431q-63 0 -94 -53t-31 -136.5
t24.5 -126.5t82.5 -43q43 0 75 32q-26 55 -26 146t51 166q-37 15 -82 15zM618 375q0 27 -16 42.5t-43 15.5q-56 0 -86.5 -45t-33.5 -107q54 0 96.5 13.5t62.5 33.5t20 47zM333 594l116 192l47 -22q29 -16 29 -36t-25 -43l-128 -124z" />
    <glyph glyph-name="Oslashacute" unicode="&#x1fe;" horiz-adv-x="664" 
d="M544 593q80 -84 80 -256.5t-79.5 -261t-215 -88.5t-212.5 88t-77 256q0 92 27 161.5t71 107.5q89 77 207.5 77t198.5 -84zM165 336q0 -248 172 -248q92 0 129 76q34 67 34 164q0 87 -30 160q-17 40 -51.5 63t-89.5 23t-94.5 -36t-54.5 -87t-15 -115zM229 -110l-102 38
l306 827l104 -37zM237 750l162 157l40 -33q18 -17 18 -33q0 -25 -35 -45l-155 -87z" />
    <glyph glyph-name="oslashacute" unicode="&#x1ff;" horiz-adv-x="528" 
d="M137 -84l-72 36l42 86q-72 69 -72 214q0 74 22 128.5t59 83.5q71 54 157 54q44 0 79 -11l38 76l73 -35l-40 -80q73 -64 73 -202.5t-67 -209.5t-172 -71q-44 0 -80 12zM265 73q109 0 109 176q0 64 -13 104l-139 -272q19 -8 43 -8zM267 430q-57 0 -84 -44t-27 -118.5
t12 -115.5l138 271q-15 7 -39 7zM235 594l116 192l47 -22q29 -16 29 -36t-25 -43l-128 -124z" />
    <glyph glyph-name="Scommaaccent" unicode="&#x218;" horiz-adv-x="522" 
d="M241 90q120 0 120 96q0 50 -53 74q-28 14 -72.5 26t-74 24.5t-59.5 34.5q-59 44 -59 135.5t63.5 144t166 52.5t190.5 -41v-150l-102 -7v58q0 15 -4 22q-11 19 -70.5 19t-88 -21t-28.5 -65q0 -32 24 -56q16 -16 47.5 -26.5t67 -21.5t63 -24t57.5 -36q61 -45 61 -139
t-67.5 -148t-178 -54t-198.5 41v158l102 7v-61q0 -15 4 -22t24.5 -13.5t64.5 -6.5zM229 -61l49 -10q32 -6 37 -29q1 -4 1 -15.5t-14 -30.5l-86 -135l-46 22z" />
    <glyph glyph-name="scommaaccent" unicode="&#x219;" horiz-adv-x="451" 
d="M295 427q-24 9 -58 9t-54.5 -15.5t-20.5 -38t7.5 -35t23.5 -21.5q25 -13 60 -22.5t52 -15t42.5 -18.5t38.5 -28q35 -37 35 -95q0 -75 -54.5 -117.5t-138.5 -42.5q-122 0 -184 31v139l90 7v-48q0 -44 84 -44t84 61q0 22 -14.5 36t-28.5 19t-33.5 10t-38 10t-40 13.5
t-47.5 24.5q-51 33 -51 110.5t55 119.5t138.5 42t165.5 -40v-120l-90 -7v42q0 25 -23 34zM198 -61l49 -10q32 -6 37 -29q1 -4 1 -15.5t-14 -30.5l-86 -135l-46 22z" />
    <glyph glyph-name="uni021A" unicode="&#x21a;" horiz-adv-x="553" 
d="M218 112v454h-78q-23 0 -23 -31v-47l-102 7v170h523v-170l-102 -7v47q0 17 -5 24t-24 7h-68v-478l79 -3v-85h-282v81l53 3q29 3 29 28zM254 -61l49 -10q32 -6 37 -29q1 -4 1 -15.5t-14 -30.5l-86 -135l-46 22z" />
    <glyph glyph-name="uni021B" unicode="&#x21b;" horiz-adv-x="377" 
d="M144 609h65v-106h133l-10 -84h-123v-263q0 -44 16 -61.5t49.5 -17.5t67.5 21l30 -77q-50 -35 -127 -35q-45 0 -76 11.5t-46 25.5t-23 41t-9 42.5t-1 45.5v267h-71l10 73q47 4 71 33.5t44 83.5zM198 -61l49 -10q32 -6 37 -29q1 -4 1 -15.5t-14 -30.5l-86 -135l-46 22z" />
    <glyph glyph-name="dotlessj" unicode="&#x237;" horiz-adv-x="283" 
d="M208 503v-527q0 -80 -26 -130q-33 -60 -134 -60q-72 0 -128 35l36 83q39 -21 71.5 -21t47 20t14.5 68v418q0 16 -5.5 22t-19.5 7l-35 2v83h179z" />
    <glyph glyph-name="apostrophe" unicode="&#x2bc;" horiz-adv-x="252" 
d="M81 503l34 210l48 -2q30 -1 37 -22q3 -7 3 -18.5t-9 -27.5l-69 -155z" />
    <glyph glyph-name="circumflex" unicode="&#x2c6;" 
d="M131 562l-41 32l115 151q20 26 43 26q25 0 46 -28l113 -148l-41 -34l-118 104z" />
    <glyph glyph-name="caron" unicode="&#x2c7;" 
d="M363 771l41 -32l-115 -146q-20 -26 -43 -26q-25 0 -46 28l-113 143l41 34l118 -104z" />
    <glyph glyph-name="uni02C9" unicode="&#x2c9;" 
d="M104 609v86h287v-86h-287z" />
    <glyph glyph-name="breve" unicode="&#x2d8;" 
d="M347 721l65 -15q-16 -68 -56.5 -106t-108 -38t-107.5 41.5t-49 102.5l68 16q28 -84 94 -84q31 0 53.5 18.5t40.5 64.5z" />
    <glyph glyph-name="dotaccent" unicode="&#x2d9;" 
d="M202 599.5q-19 18.5 -19 47t19.5 48t49.5 19.5t49.5 -19.5t19.5 -48t-19.5 -47t-50 -18.5t-49.5 18.5z" />
    <glyph glyph-name="ring" unicode="&#x2da;" 
d="M179.5 590.5q-24.5 26.5 -24.5 67t26.5 66.5t69 26t67.5 -25.5t25 -65.5t-26 -67.5t-69.5 -27.5t-68 26.5zM250 698q-36 0 -36 -41.5t36 -41.5q17 0 26.5 12t9.5 30q0 41 -36 41z" />
    <glyph glyph-name="ogonek" unicode="&#x2db;" 
d="M227 6l105 -4q-104 -46 -104 -99q0 -38 41 -38q22 0 47 11l22 -66q-50 -24 -104.5 -24t-80 27.5t-25.5 69.5t27 70.5t72 52.5z" />
    <glyph glyph-name="tilde" unicode="&#x2dc;" 
d="M133 596l-48 35q36 79 102 79q24 0 70 -14t67.5 -14t40.5 32l54 -29q-33 -87 -103 -87q-22 0 -66 13.5t-61.5 13.5t-28.5 -5.5t-27 -23.5z" />
    <glyph glyph-name="hungarumlaut" unicode="&#x2dd;" 
d="M82 597l116 192l43 -20q29 -16 29 -36t-25 -43l-124 -126zM252 594l116 192l43 -20q29 -16 29 -36t-25 -43l-124 -126z" />
    <glyph glyph-name="uni0394" unicode="&#x394;" horiz-adv-x="669" 
d="M653 0h-637l257 665h125zM337 538h-4l-164 -445h331z" />
    <glyph glyph-name="uni03A9" unicode="&#x3a9;" horiz-adv-x="781" 
d="M73 345q0 146 91 229t233 83t227.5 -76t85.5 -219q0 -80 -33.5 -147.5t-88.5 -108.5h145v-106h-277v86q130 94 130 249q0 110 -53.5 164.5t-138.5 54.5t-140 -54.5t-55 -165.5q0 -86 40 -150t100 -99v-85h-284v106h136q-55 38 -86.5 99.5t-31.5 139.5z" />
    <glyph glyph-name="uni03BC" unicode="&#x3bc;" horiz-adv-x="584" 
d="M504 503v-400q0 -33 26 -33q14 0 39 12l14 -70q-43 -24 -91 -24q-75 0 -79 81q-16 -37 -51 -60t-78 -23q-70 0 -103 49v-251h-107v719h112v-289q0 -70 22 -107t74 -37t80 43.5t28 117.5v272h114z" />
    <glyph glyph-name="pi" unicode="&#x3c0;" horiz-adv-x="630" 
d="M594 410h-77v-289q0 -29 5.5 -39.5t23 -10.5t43.5 7l16 -71q-40 -20 -96 -20q-105 0 -105 107v316h-168v-410h-113v410h-78v93h549v-93z" />
    <glyph glyph-name="Wgrave" unicode="&#x1e80;" horiz-adv-x="885" 
d="M880 584l-33 -3q-26 -2 -33 -36l-126 -545h-137l-105 445h-3l-102 -445h-141l-138 577l-57 3v85h248v-81l-33 -3q-31 -3 -31 -26q0 -4 1 -9l87 -386h4l104 452h129l108 -454h2l85 418l-54 4v85h225v-81zM379 907l162 -157l-30 -41l-155 87q-36 20 -36 40t19 38z" />
    <glyph glyph-name="wgrave" unicode="&#x1e81;" horiz-adv-x="795" 
d="M364 483h97l104 -372h2l68 309l-51 3v80h201v-77l-33 -2q-20 -2 -27 -24l-95 -400h-144l-82 298h-3l-85 -298h-147l-101 399q-5 14 -10.5 19t-18.5 6l-29 2v77h229v-80l-56 -3l69 -307h2zM373 786l116 -192l-39 -33l-128 124q-25 23 -25 43t29 36z" />
    <glyph glyph-name="Wacute" unicode="&#x1e82;" horiz-adv-x="885" 
d="M880 584l-33 -3q-26 -2 -33 -36l-126 -545h-137l-105 445h-3l-102 -445h-141l-138 577l-57 3v85h248v-81l-33 -3q-31 -3 -31 -26q0 -4 1 -9l87 -386h4l104 452h129l108 -454h2l85 418l-54 4v85h225v-81zM353 750l162 157l40 -33q18 -17 18 -33q0 -25 -35 -45l-155 -87z
" />
    <glyph glyph-name="wacute" unicode="&#x1e83;" horiz-adv-x="795" 
d="M364 483h97l104 -372h2l68 309l-51 3v80h201v-77l-33 -2q-20 -2 -27 -24l-95 -400h-144l-82 298h-3l-85 -298h-147l-101 399q-5 14 -10.5 19t-18.5 6l-29 2v77h229v-80l-56 -3l69 -307h2zM325 594l116 192l47 -22q29 -16 29 -36t-25 -43l-128 -124z" />
    <glyph glyph-name="Wdieresis" unicode="&#x1e84;" horiz-adv-x="885" 
d="M880 584l-33 -3q-26 -2 -33 -36l-126 -545h-137l-105 445h-3l-102 -445h-141l-138 577l-57 3v85h248v-81l-33 -3q-31 -3 -31 -26q0 -4 1 -9l87 -386h4l104 452h129l108 -454h2l85 418l-54 4v85h225v-81zM504 739.5q-19 18.5 -19 47t19.5 48t49.5 19.5t49.5 -19.5
t19.5 -48t-19.5 -47t-50 -18.5t-49.5 18.5zM304 739.5q-19 18.5 -19 47t19.5 48t49.5 19.5t49.5 -19.5t19.5 -48t-19.5 -47t-50 -18.5t-49.5 18.5z" />
    <glyph glyph-name="wdieresis" unicode="&#x1e85;" horiz-adv-x="795" 
d="M364 483h97l104 -372h2l68 309l-51 3v80h201v-77l-33 -2q-20 -2 -27 -24l-95 -400h-144l-82 298h-3l-85 -298h-147l-101 399q-5 14 -10.5 19t-18.5 6l-29 2v77h229v-80l-56 -3l69 -307h2zM460 599.5q-19 18.5 -19 47t19.5 48t49.5 19.5t49.5 -19.5t19.5 -48t-19.5 -47
t-50 -18.5t-49.5 18.5zM260 599.5q-19 18.5 -19 47t19.5 48t49.5 19.5t49.5 -19.5t19.5 -48t-19.5 -47t-50 -18.5t-49.5 18.5z" />
    <glyph glyph-name="Ygrave" unicode="&#x1ef2;" horiz-adv-x="570" 
d="M222 112v142l-170 323l-47 3v85h244v-81l-30 -3q-16 -1 -20.5 -12t3.5 -27l85 -174h4l109 208l-50 4v85h215v-81l-30 -3q-19 -2 -34 -30l-157 -297v-166l78 -3v-85h-282v81l53 3q29 2 29 28zM209 907l162 -157l-30 -41l-155 87q-36 20 -36 40t19 38z" />
    <glyph glyph-name="ygrave" unicode="&#x1ef3;" horiz-adv-x="573" 
d="M401 19v76q-55 -78 -162 -78q-155 0 -155 173v201q0 27 -25 28l-32 2v82h176v-287q0 -53 15 -80t62 -27t75.5 29t28.5 70v181q0 17 -5.5 23.5t-19.5 6.5l-32 2v82h176v-484q0 -121 -58.5 -177t-177 -56t-184.5 33v139l95 8v-48q0 -27 25 -36.5t69 -9.5q129 0 129 147z
M215 786l116 -192l-39 -33l-128 124q-25 23 -25 43t29 36z" />
    <glyph glyph-name="endash" unicode="&#x2013;" 
d="M0 244v83h500v-83h-500z" />
    <glyph glyph-name="emdash" unicode="&#x2014;" horiz-adv-x="1000" 
d="M0 244v83h1000v-83h-1000z" />
    <glyph glyph-name="quoteleft" unicode="&#x2018;" horiz-adv-x="220" 
d="M200 711l-58 -236q-61 7 -92 23q-19 10 -19 31t11 40l95 165z" />
    <glyph glyph-name="quoteright" unicode="&#x2019;" horiz-adv-x="212" 
d="M31 498l58 236q61 -7 92 -23q19 -10 19 -31t-11 -40l-95 -165z" />
    <glyph glyph-name="quotesinglbase" unicode="&#x201a;" horiz-adv-x="227" 
d="M192 74l-102 -221l-63 19l30 190q8 50 49 50q21 0 32.5 -6.5t19 -10.5t10.5 -6t12 -7.5t12 -7.5z" />
    <glyph glyph-name="quotedblleft" unicode="&#x201c;" horiz-adv-x="386" 
d="M200 711l-58 -236q-61 7 -92 23q-19 10 -19 31t11 40l95 165zM366 711l-58 -236q-61 7 -92 23q-19 10 -19 31t11 40l95 165z" />
    <glyph glyph-name="quotedblright" unicode="&#x201d;" horiz-adv-x="378" 
d="M31 498l58 236q61 -7 92 -23q19 -10 19 -31t-11 -40l-95 -165zM197 498l58 236q61 -7 92 -23q19 -10 19 -31t-11 -40l-95 -165z" />
    <glyph glyph-name="quotedblbase" unicode="&#x201e;" horiz-adv-x="393" 
d="M192 74l-102 -221l-63 19l30 190q8 50 49 50q21 0 32.5 -6.5t19 -10.5t10.5 -6t12 -7.5t12 -7.5zM358 74l-102 -221l-63 19l30 190q8 50 49 50q21 0 32.5 -6.5t19 -10.5t10.5 -6t12 -7.5t12 -7.5z" />
    <glyph glyph-name="dagger" unicode="&#x2020;" horiz-adv-x="401" 
d="M48 472l-8 35q-2 8 -2 18.5t10 20.5t20.5 10t15.5 -1l88 -16l-23 126l33 8q9 2 20 2t23 -9.5t12 -20t-1 -14.5l-16 -94l130 24l8 -32q2 -8 2 -18.5t-10 -22t-20.5 -11.5t-15.5 1l-94 19l20 -211v-5q0 -20 -11.5 -30t-23 -10t-19.5 2l-43 10l27 244z" />
    <glyph glyph-name="daggerdbl" unicode="&#x2021;" horiz-adv-x="439" 
d="M71 482l-8 35q-2 8 -2 18.5t10 20.5t20.5 10t15.5 -1l88 -16l-23 116l33 8q9 2 20 2t23 -9.5t12 -20t-1 -14.5l-16 -84l130 24l8 -32q2 -8 2 -18.5t-10 -22t-20.5 -11.5t-15.5 1l-89 18v-95l120 25l8 -35q2 -8 2 -18.5t-10 -20.5t-20.5 -10t-15.5 1l-88 16l23 -116
l-33 -8q-9 -2 -20 -2t-23 9.5t-12 20t1 14.5l16 84l-130 -24l-8 32q-2 8 -2 18.5t10 22t20.5 11.5t15.5 -1l89 -18v94z" />
    <glyph glyph-name="bullet" unicode="&#x2022;" 
d="M166.5 220q-32.5 34 -32.5 89.5t32.5 89.5t83.5 34t83.5 -34t32.5 -89.5t-32.5 -89.5t-83.5 -34t-83.5 34z" />
    <glyph glyph-name="ellipsis" unicode="&#x2026;" horiz-adv-x="727" 
d="M55 4.5q-19 19.5 -19 51t19.5 52t53 20.5t53.5 -19.5t20 -51t-19 -52t-54 -20.5t-54 19.5zM313 4.5q-19 19.5 -19 51t19.5 52t53 20.5t53.5 -19.5t20 -51t-19 -52t-54 -20.5t-54 19.5zM563 4.5q-19 19.5 -19 51t19.5 52t53 20.5t53.5 -19.5t20 -51t-19 -52t-54 -20.5
t-54 19.5z" />
    <glyph glyph-name="perthousand" unicode="&#x2030;" horiz-adv-x="924" 
d="M659 256.5q38 40.5 100.5 40.5t98.5 -38.5t36 -115t-37.5 -117t-102 -40.5t-99 39.5t-34.5 115t38 116zM756 49q60 0 60 92t-58 92t-58 -92t56 -92zM350 256.5q38 40.5 100 40.5t98.5 -38.5t36.5 -114.5t-37.5 -117t-102 -41t-99 39.5t-34.5 115t38 116zM447 49
q59 0 59 92t-57 92q-59 0 -59 -92t57 -92zM170 657q62 0 98 -38.5t36 -115t-37.5 -117t-102 -40.5t-99 39t-34.5 114.5t38.5 116.5t100.5 41zM166 409q60 0 60 92t-58 92t-58 -92t56 -92zM119 109l-55 67l441 368l57 -67z" />
    <glyph glyph-name="guilsinglleft" unicode="&#x2039;" horiz-adv-x="326" 
d="M293 406l-120 -143l113 -160l-47 -42l-174 161q-18 17 -18 43.5t29 49.5l170 136z" />
    <glyph glyph-name="guilsinglright" unicode="&#x203a;" horiz-adv-x="326" 
d="M154 263l-120 145l47 45l170 -136q29 -23 29 -50.5t-20 -45.5l-172 -158l-47 42z" />
    <glyph glyph-name="fraction" unicode="&#x2044;" horiz-adv-x="173" 
d="M-39 -41l-76 35l324 692l78 -33z" />
    <glyph glyph-name="foursuperior" unicode="&#x2074;" horiz-adv-x="377" 
d="M195 427v27h-152v58l112 232l69 -32l-92 -189h68l29 76h53v-76h61v-71h-61v-41l71 -3v-67h-233v66l59 4q16 1 16 16z" />
    <glyph glyph-name="Euro" unicode="&#x20ac;" horiz-adv-x="561" 
d="M359 558q-55 0 -87.5 -37t-38.5 -94h212v-82h-405v82h71q11 113 82 171.5t168.5 58.5t174.5 -41v-140l-102 -7v47q0 15 -4 21.5t-21.5 13.5t-49.5 7zM40 206v82h405v-82h-210q12 -59 43.5 -88t92 -29t116.5 47l57 -80q-75 -68 -190 -68q-205 0 -243 218h-71z" />
    <glyph glyph-name="trademark" unicode="&#x2122;" horiz-adv-x="779" 
d="M141 395v206h-34q-12 0 -12 -16v-20l-56 4v96h283v-96l-56 -4v20q0 9 -2.5 12.5t-12.5 3.5h-30v-217l40 -3v-52h-161v51l27 1q14 3 14 14zM476 665l76 -200h1l76 200h116v-56l-16 -1q-16 -3 -16 -18l13 -206l32 -2v-53h-133v51l18 2q14 0 14 13l-9 162h-2l-74 -195h-52
l-78 196h-1l-10 -174l33 -2v-53h-127v51l18 2q13 0 13 14l10 209l-31 2v58h129z" />
    <glyph glyph-name="Omega" unicode="&#x2126;" horiz-adv-x="781" 
d="M73 360q0 146 91.5 231.5t233 85.5t227 -78.5t85.5 -221.5q0 -82 -34.5 -156.5t-87.5 -114.5h145v-106h-277v86q50 36 90 102.5t40 169.5t-54 159.5t-138 56.5t-139.5 -56.5t-55.5 -168.5q0 -87 41 -158.5t99 -105.5v-85h-284v106h136q-54 37 -86 106t-32 148z" />
    <glyph glyph-name="partialdiff" unicode="&#x2202;" horiz-adv-x="555" 
d="M139 582l24 87q177 -33 253 -133.5t76 -263.5q0 -81 -20 -142.5t-71 -102.5t-130 -41q-111 0 -164 62t-53 159t55 155t147 58q65 0 121 -35q-10 72 -76.5 126t-161.5 71zM377 288q-47 45 -101 45t-80 -34t-26 -95.5t26.5 -95.5t75.5 -34q106 0 106 180q0 22 -1 34z" />
    <glyph glyph-name="Delta" unicode="&#x2206;" horiz-adv-x="669" 
d="M653 0h-637l257 665h125zM337 538h-4l-164 -445h331z" />
    <glyph glyph-name="product" unicode="&#x220f;" horiz-adv-x="687" 
d="M15 665h661v-81l-33 -3q-15 -2 -22 -9t-7 -26v-590l57 -3v-85h-241v81l36 3q25 1 25 27v579h-296v-602l59 -3v-85h-243v81l36 3q25 2 25 27v597l-57 4v85z" />
    <glyph glyph-name="summation" unicode="&#x2211;" horiz-adv-x="586" 
d="M561 55v-187h-534v95l260 306l-251 300v96h516v-177l-102 -7v46q0 17 -5 24t-24 7h-223l234 -288l-246 -295h245q18 0 23 7.5t5 24.5v55z" />
    <glyph glyph-name="minus" unicode="&#x2212;" horiz-adv-x="535" 
d="M470 362v-96h-405v96h405z" />
    <glyph glyph-name="uni2215" unicode="&#x2215;" horiz-adv-x="476" 
d="M138 -117l-103 36l291 825l104 -36z" />
    <glyph glyph-name="uni2219" unicode="&#x2219;" horiz-adv-x="315" 
d="M103.5 257.5q-18.5 18.5 -18.5 49t18.5 49.5t50.5 19t51 -18.5t19 -48.5t-18.5 -49.5t-51 -19.5t-51 18.5z" />
    <glyph glyph-name="radical" unicode="&#x221a;" horiz-adv-x="667" 
d="M681 731l-262 -745h-113l-141 404l-96 -49l-35 82l200 101l129 -382l200 589h118z" />
    <glyph glyph-name="infinity" unicode="&#x221e;" horiz-adv-x="764" 
d="M684 463.5q39 -43.5 39 -112.5t-43.5 -113.5t-111.5 -44.5q-99 0 -184 97q-84 -99 -179 -99q-77 0 -120.5 42.5t-43.5 110.5t46.5 115t111 47t105 -25.5t81.5 -81.5q50 56 92 82t105 26t102 -43.5zM607.5 297q17.5 22 17.5 54t-17 51t-48 19t-55.5 -18.5t-54.5 -55.5
q53 -72 109 -72q31 0 48.5 22zM317 345q-48 76 -104 76q-37 0 -56.5 -21t-19.5 -53t19.5 -52t54.5 -20q56 0 106 70z" />
    <glyph glyph-name="integral" unicode="&#x222b;" horiz-adv-x="390" 
d="M239 549l33 -561v-7q0 -59 -32 -98t-96.5 -39t-114.5 20l16 75q39 -12 65.5 -12t36.5 11.5t10 43.5q0 12 -3 58l-25 434q-3 51 -3 73q0 60 31.5 100t104.5 40q53 0 105 -18l-12 -75q-39 12 -67 12t-38.5 -13t-10.5 -44z" />
    <glyph glyph-name="approxequal" unicode="&#x2248;" horiz-adv-x="620" 
d="M415 139q-49 0 -114.5 34t-89.5 34q-43 0 -91 -64l-69 56q70 104 149 104q40 0 107 -35t98 -35q47 0 92 63l69 -58q-61 -99 -151 -99zM412 346q-49 0 -114.5 34t-89.5 34q-42 0 -91 -64l-68 56q68 104 149 104q40 0 106.5 -35t98.5 -35q47 0 92 63l69 -58
q-61 -99 -152 -99z" />
    <glyph glyph-name="notequal" unicode="&#x2260;" horiz-adv-x="535" 
d="M470 259v-97h-200l-28 -105h-100l29 105h-106v97h132l27 95h-159v96h186l29 104h96l-28 -104h122v-96h-148l-26 -95h174z" />
    <glyph glyph-name="lessequal" unicode="&#x2264;" horiz-adv-x="535" 
d="M463 116v-97h-390v97h390zM467 488l-262 -122l264 -125l-42 -90l-353 171v82l353 173z" />
    <glyph glyph-name="greaterequal" unicode="&#x2265;" horiz-adv-x="535" 
d="M79 19v97h390v-97h-390zM337 366l-262 122l40 89l353 -173v-82l-353 -171l-42 90z" />
    <glyph glyph-name="lozenge" unicode="&#x25ca;" horiz-adv-x="581" 
d="M532 331l-189 -331h-102l-190 329l191 328h100zM417 331l-126 220l-123 -221l126 -227z" />
    <glyph glyph-name="ff" unicode="&#xfb00;" horiz-adv-x="656" 
d="M382 112v307h-167v-335l64 -4v-80h-245v76l33 3q15 2 22 8.5t7 24.5v307h-86v84h86v38q0 71 27 120q34 62 141 62q55 0 101 -17l-24 -83q-33 10 -63 10q-63 0 -63 -83v-47h167v38q0 98 45 141q42 41 123 41t144 -35l-29 -80q-48 25 -90 25t-58 -20.5t-16 -62.5v-47h148
v-84h-148v-335l84 -4v-80h-265v76l33 3q15 2 22 8.5t7 24.5z" />
    <glyph glyph-name="fi" unicode="&#xfb01;" horiz-adv-x="587" 
d="M96 112v307h-86v84h86v38q0 182 189 182q47 0 96 -13.5t79 -30.5l-31 -81q-68 35 -129 35q-85 0 -85 -83v-47h286v-420l57 -3v-80h-238v76l33 3q29 3 29 32v278q0 30 -26 30h-141v-335l64 -4v-80h-245v76l33 3q15 2 22 8.5t7 24.5z" />
    <glyph glyph-name="fl" unicode="&#xfb02;" horiz-adv-x="586" 
d="M500 713v-630l57 -3v-80h-238v76l33 3q29 3 29 32v308h-166v-335l64 -4v-80h-245v76l33 3q15 2 22 8.5t7 24.5v307h-86v84h86v38q0 70 32 121q18 28 55.5 44.5t99.5 16.5t122 -31l59 21h36zM215 555v-52h166v106q-41 24 -88 24q-78 0 -78 -78z" />
    <glyph glyph-name="ffi" unicode="&#xfb03;" horiz-adv-x="869" 
d="M382 112v307h-167v-335l64 -4v-80h-245v76l33 3q15 2 22 8.5t7 24.5v307h-86v84h86v38q0 71 27 120q34 62 141 62q55 0 101 -17l-24 -83q-33 10 -63 10q-63 0 -63 -83v-47h167v38q0 182 189 182q47 0 96 -13.5t79 -30.5l-31 -81q-68 35 -129 35q-85 0 -85 -83v-47h286
v-420l57 -3v-80h-238v76l33 3q29 3 29 32v278q0 30 -26 30h-141v-335l64 -4v-80h-245v76l33 3q15 2 22 8.5t7 24.5z" />
    <glyph glyph-name="ffl" unicode="&#xfb04;" horiz-adv-x="872" 
d="M786 713v-630l57 -3v-80h-238v76l33 3q29 3 29 32v308h-166v-335l64 -4v-80h-245v76l33 3q15 2 22 8.5t7 24.5v307h-167v-335l64 -4v-80h-245v76l33 3q15 2 22 8.5t7 24.5v307h-86v84h86v38q0 71 27 120q34 62 141 62q55 0 101 -17l-24 -83q-33 10 -63 10q-63 0 -63 -83
v-47h167v38q0 70 32 121q18 28 55.5 44.5t99.5 16.5t122 -31l59 21h36zM501 555v-52h166v106q-41 24 -88 24q-78 0 -78 -78z" />
    </font>
</defs>
</svg>
